<?xml version="1.0" encoding="utf-8"?>
<!-- Generator: Adobe Illustrator 16.0.0, SVG Export Plug-In . SVG Version: 6.00 Build 0)  -->
<!DOCTYPE svg PUBLIC "-//W3C//DTD SVG 1.1//EN" "http://www.w3.org/Graphics/SVG/1.1/DTD/svg11.dtd">
<svg version="1.1" id="Layer_1" xmlns="http://www.w3.org/2000/svg" xmlns:xlink="http://www.w3.org/1999/xlink" x="0px" y="0px"
	 width="612px" height="792px" viewBox="0 0 612 792" enable-background="new 0 0 612 792" xml:space="preserve">
<path fill-rule="evenodd" clip-rule="evenodd" fill="#2F0DB8" d="M167.161,408.006c0.995,1.219,2.433,1.867,3.641,2.813
	c1.33,1.04,1.363,1.015,0.845,2.537c-4.378,12.86-8.765,25.718-13.139,38.579c-4.096,12.042-8.162,24.095-12.285,36.128
	c-0.858,2.505-0.229,2.139-3.057,2.13c-26.639-0.085-53.277-0.173-79.915-0.26c-0.433-0.001-0.865-0.008-1.298-0.001
	c-0.499,0.007-0.803-0.208-0.939-0.704c-0.13-0.476-0.319-0.936-0.471-1.405c-7.732-23.855-15.464-47.71-23.194-71.566
	c-0.419-1.292-0.78-2.605-1.253-3.878c-0.261-0.702-0.148-1.142,0.474-1.554c1.029-0.683,2.019-1.424,3.025-2.141
	c0,0.001,0.161,0.014,0.161,0.014l0.162-0.001c0.27,2.159,1.151,4.148,1.796,6.194c2.877,9.113,5.848,18.197,8.805,27.286
	c1.373,4.22,2.814,8.417,4.181,12.639c1.823,5.63,3.595,11.276,5.409,16.909c0.497,1.541,0.53,1.537,2.05,1.563
	c10.188,0.181,20.375,0.04,30.568,0.256c16.625,0.354,33.264,0.101,49.896,0.104c0.309,0,0.619,0.008,0.927-0.001
	c1.416-0.039,1.53-0.059,1.894-1.497c0.35-1.382,0.892-2.687,1.349-4.026c2.247-6.593,4.485-13.189,6.714-19.788
	c1.519-4.496,2.994-9.007,4.529-13.498c2.471-7.231,5.03-14.434,7.425-21.69c0.55-1.667,1.562-3.257,1.347-5.139l0.177-0.008
	L167.161,408.006z"/>
<path fill-rule="evenodd" clip-rule="evenodd" fill="#0366FD" d="M366.428,410.096c0-9.89,0-19.779,0-29.669
	c0-0.433,0.033-0.869-0.006-1.298c-0.075-0.843,0.197-1.233,1.128-1.212c8.338,0.188,16.687-0.364,25.017,0.367
	c1.788,0.157,3.54,0.515,5.262,1.031c6.83,2.048,10.523,6.529,11.238,13.612c0.205,2.032,0.307,4.063,0.302,6.106
	c-0.02,7.664,0.006,15.329-0.027,22.993c-0.012,2.659-0.259,5.299-0.901,7.897c-1.398,5.655-4.948,9.261-10.427,11.042
	c-3.083,1.002-6.276,1.402-9.495,1.434c-6.86,0.065-13.722,0.034-20.582,0.031c-1.482-0.001-1.503-0.024-1.504-1.555
	C366.425,430.616,366.428,420.355,366.428,410.096z M382.514,410.235c0,6.673,0,13.346,0,20.019c0,0.433,0.012,0.865,0.01,1.298
	c-0.003,0.609,0.281,0.887,0.904,0.872c1.603-0.039,3.207,0.079,4.799-0.27c2.668-0.585,4.082-2.02,4.51-4.721
	c0.203-1.282,0.294-2.573,0.292-3.876c-0.011-9.144-0.011-18.288,0-27.433c0.002-1.179-0.09-2.345-0.282-3.505
	c-0.386-2.329-1.755-3.736-4.036-4.291c-1.702-0.414-3.435-0.331-5.163-0.355c-0.686-0.01-1.053,0.219-1.028,0.945
	c0.015,0.432-0.005,0.865-0.005,1.297C382.514,396.89,382.514,403.563,382.514,410.235z"/>
<path fill-rule="evenodd" clip-rule="evenodd" fill="#0265FD" d="M284.763,410.204c0.001,5.067-0.006,10.135,0.004,15.202
	c0.003,1.927-0.238,3.818-0.71,5.683c-1.167,4.61-3.926,7.897-8.235,9.89c-2.434,1.125-5.009,1.766-7.662,2.041
	c-4.751,0.494-9.498,0.562-14.189-0.547c-2.488-0.587-4.814-1.557-6.85-3.143c-3.149-2.454-4.712-5.8-5.361-9.639
	c-0.257-1.522-0.377-3.06-0.375-4.612c0.018-10.011,0.017-20.022,0.001-30.034c-0.003-1.679,0.153-3.336,0.52-4.964
	c1.185-5.274,4.358-8.908,9.298-11.002c4.357-1.848,8.957-2.264,13.625-2.079c2.592,0.103,5.164,0.415,7.673,1.159
	c7.773,2.306,12.024,7.807,12.252,15.916c0.005,0.185,0.007,0.371,0.007,0.556C284.762,399.821,284.762,405.013,284.763,410.204z
	 M257.668,410.198c0,5.436,0.004,10.87-0.004,16.305c-0.001,1.057,0.064,2.099,0.413,3.104c0.401,1.153,1.084,2.062,2.208,2.613
	c3.977,1.95,7.82-0.229,8.125-4.618c0.021-0.308,0.024-0.617,0.024-0.926c0.001-10.993-0.002-21.986,0.007-32.979
	c0-0.998-0.104-1.974-0.392-2.925c-0.443-1.465-1.38-2.434-2.878-2.867c-1.091-0.316-2.195-0.4-3.3-0.224
	c-2.016,0.321-3.343,1.438-3.889,3.464c-0.262,0.972-0.314,1.945-0.314,2.934C257.668,399.452,257.668,404.826,257.668,410.198z"/>
<path fill-rule="evenodd" clip-rule="evenodd" fill="#02B3FF" d="M38.158,374.246c-1.427-3.623-2.453-7.381-3.716-11.059
	c-0.277-0.809,0.237-1.105,0.752-1.468c3.032-2.133,6.058-4.277,9.088-6.413c12.427-8.754,24.855-17.508,37.284-26.26
	c6.568-4.625,13.14-9.246,19.708-13.871c1.704-1.2,1.43-1.09,3,0.037c16.868,12.104,33.736,24.208,50.603,36.313
	c4.87,3.495,9.72,7.016,14.619,10.47c0.872,0.615,1.028,1.147,0.665,2.139c-1.274,3.477-2.447,6.992-3.658,10.492
	c0,0-0.141,0.058-0.141,0.058c-2.965-2.104-5.94-4.194-8.894-6.313c-6.209-4.456-12.404-8.932-18.61-13.392
	c-6.556-4.711-13.119-9.414-19.679-14.12c-4.807-3.448-9.62-6.888-14.417-10.35c-1.887-1.362-1.888-1.411-3.779-0.084
	c-6.712,4.708-13.409,9.437-20.115,14.154c-7.815,5.497-15.638,10.981-23.448,16.485c-3.729,2.628-7.391,5.351-11.166,7.91
	c-2.598,1.761-5.013,3.79-7.765,5.325C38.379,374.276,38.269,374.259,38.158,374.246z"/>
<path fill-rule="evenodd" clip-rule="evenodd" fill="#0265FD" d="M312.469,427.527c0.146-1.307,0.329-2.61,0.433-3.921
	c0.484-6.159,1.415-12.269,2.063-18.409c0.545-5.158,1.14-10.312,1.704-15.468c0.39-3.561,0.781-7.121,1.139-10.685
	c0.072-0.72,0.251-1.13,1.089-1.126c5.182,0.024,10.363,0.012,15.541,0.012c0.306,0.651,0.081,1.194-0.017,1.706
	c-2.512,13.156-5.042,26.308-7.567,39.46c-1.396,7.274-2.786,14.549-4.186,21.822c-0.289,1.503-0.3,1.513-1.886,1.514
	c-5.933,0.005-11.865,0.006-17.798-0.001c-1.513-0.001-1.534-0.014-1.809-1.43c-1.272-6.544-2.524-13.091-3.795-19.634
	c-2.66-13.692-5.328-27.384-7.99-41.076c-0.14-0.719-0.251-1.443-0.367-2.113c0.418-0.311,0.799-0.247,1.164-0.247
	c4.82-0.004,9.641-0.01,14.461,0.001c1.393,0.003,1.407,0.027,1.581,1.425c1.15,9.252,2.274,18.507,3.445,27.756
	c0.838,6.617,1.699,13.229,2.217,19.881c0.014,0.172,0.113,0.337,0.173,0.505C312.198,427.51,312.333,427.519,312.469,427.527z"/>
<path fill-rule="evenodd" clip-rule="evenodd" fill="#0265FD" d="M193.165,410.027c0-5.315,0.011-10.631-0.007-15.946
	c-0.005-1.617,0.17-3.211,0.532-4.777c1.137-4.927,4.072-8.366,8.718-10.337c4.249-1.803,8.728-2.146,13.268-1.962
	c2.096,0.084,4.187,0.285,6.242,0.775c7.786,1.858,11.62,6.228,12.296,14.179c0.151,1.781,0.034,3.583,0.093,5.373
	c0.027,0.809-0.284,1.076-1.075,1.072c-4.697-0.022-9.394-0.022-14.091,0c-0.803,0.004-1.111-0.3-1.066-1.091
	c0.042-0.738,0.013-1.482,0.007-2.224c-0.01-1.112,0.017-2.227-0.05-3.336c-0.215-3.553-3.499-5.365-6.649-3.685
	c-0.739,0.394-1.24,1.009-1.522,1.796c-0.338,0.944-0.422,1.922-0.421,2.919c0.005,11.495,0.001,22.991,0.006,34.486
	c0,0.864,0.033,1.722,0.28,2.569c0.61,2.094,1.957,3.033,4.311,2.95c2.22-0.079,3.511-1.096,3.954-3.181
	c0.205-0.966,0.337-1.945,0.322-2.942c-0.021-1.359,0.044-2.722-0.018-4.078c-0.044-0.963,0.293-1.272,1.265-1.264
	c4.573,0.044,9.147,0.02,13.721,0.02c0.124,0,0.247,0.008,0.371,0.001c0.612-0.034,0.901,0.239,0.906,0.865
	c0.025,3.588,0.054,7.181-1.087,10.643c-1.222,3.709-3.63,6.409-7.143,8.114c-1.619,0.786-3.321,1.336-5.088,1.672
	c-5.031,0.958-10.095,1.06-15.106,0.059c-8.487-1.695-12.762-6.947-12.932-15.8c-0.108-5.622-0.02-11.247-0.02-16.871
	C193.173,410.027,193.169,410.027,193.165,410.027z"/>
<path fill-rule="evenodd" clip-rule="evenodd" fill="#02FFFC" d="M301.526,465.746c0,5.19-0.066,10.383,0.027,15.571
	c0.047,2.606-1.046,4.561-3.018,6.023c-2.581,1.916-5.517,3.036-8.771,3.046c-2.09,0.007-4.18,0.16-6.269-0.321
	c-5.174-1.192-8.916-3.913-10.74-9.113c-1.857-5.291-3.664-10.606-5.825-15.787c-0.854-2.05-1.734-4.091-2.926-5.975
	c-0.426-0.674-0.816-1.39-1.489-1.869c-1.302-0.928-2.813-0.284-3.006,1.296c-0.06,0.487-0.022,0.987-0.022,1.481
	c0,9.27,0,18.538-0.001,27.808c0,2.168,0.167,2.011-1.989,2.013c-2.843,0.002-5.686,0.009-8.528-0.002
	c-1.592-0.007-1.609-0.021-1.61-1.646c-0.006-7.725-0.003-15.449-0.003-23.174c0-2.657,0.026-5.314-0.006-7.971
	c-0.042-3.499,1.52-6.005,4.579-7.634c1.654-0.88,3.424-1.481,5.264-1.649c3.869-0.353,7.753-0.698,11.454,1.069
	c3.001,1.435,5.24,3.642,6.945,6.447c2.292,3.775,3.711,7.916,5.028,12.096c1.149,3.646,2.292,7.295,3.768,10.827
	c0.236,0.565,0.505,1.138,0.867,1.628c0.699,0.949,2.028,1.394,2.96,1.005c1.059-0.441,1.332-1.346,1.327-2.418
	c-0.015-3.955-0.006-7.909-0.006-11.864c0-5.562-0.004-11.123,0.002-16.686c0.002-2.162-0.185-1.945,2.027-1.952
	c2.842-0.01,5.685-0.013,8.527,0.002c1.4,0.008,1.425,0.028,1.428,1.435C301.533,454.869,301.526,460.308,301.526,465.746z"/>
<path fill-rule="evenodd" clip-rule="evenodd" fill="#03FFFC" d="M308.208,330.87c5.13,0,10.259-0.006,15.389,0.004
	c1.529,0.003,1.545,0.023,1.556,1.514c0.015,2.101-0.02,4.203,0.014,6.304c0.013,0.787-0.264,1.126-1.068,1.095
	c-0.987-0.038-1.978-0.007-2.966-0.007c-8.22,0-16.439-0.006-24.659,0.004c-1.911,0.002-3.308,0.984-3.896,2.545
	c-0.709,1.881,0.502,4.321,2.857,4.699c0.969,0.156,1.97,0.158,2.956,0.16c8.158,0.012,16.316,0.007,24.473,0.007
	c0.433,0,0.866,0.02,1.298-0.002c0.696-0.036,1.006,0.255,1,0.972c-0.021,2.349-0.018,4.697-0.005,7.045
	c0.004,0.624-0.265,0.903-0.882,0.89c-0.494-0.011-0.988,0.004-1.482,0.004c-8.899,0-17.799-0.005-26.698,0.003
	c-3.005,0.003-4.637,2.761-3.188,5.345c0.519,0.925,1.316,1.499,2.334,1.637c1.154,0.157,2.304,0.337,3.486,0.332
	c8.034-0.031,16.068-0.016,24.103-0.016c0.433,0,0.867,0.028,1.297-0.003c0.834-0.061,1.051,0.359,1.04,1.12
	c-0.031,2.163,0.006,4.326-0.017,6.489c-0.014,1.265-0.042,1.295-1.396,1.298c-6.365,0.012-12.73,0.005-19.096,0.005
	c-2.534,0-5.068,0.023-7.602-0.006c-2.586-0.031-5.201-0.035-7.697-0.766c-4.638-1.356-7.942-4.187-9.123-9.041
	c-0.842-3.462-0.313-6.755,1.752-9.699c0.615-0.876,0.68-1.422,0.04-2.398c-5.063-7.731-0.769-17.458,8.417-19.221
	c1.152-0.221,2.307-0.333,3.487-0.325C298.69,330.887,303.449,330.87,308.208,330.87z"/>
<path fill-rule="evenodd" clip-rule="evenodd" fill="#02FFFC" d="M544.956,448.363c5.193,0,10.388-0.006,15.581,0.005
	c1.398,0.003,1.415,0.028,1.426,1.438c0.017,2.04,0.021,4.08-0.001,6.121c-0.014,1.303-0.039,1.334-1.354,1.338
	c-5.008,0.015-10.017,0.006-15.024,0.006c-4.081,0-8.161,0-12.242,0.001c-0.739,0-1.467-0.025-2.149,0.396
	c-1.401,0.864-2.164,2.32-1.88,3.722c0.321,1.581,1.495,2.684,3.196,2.903c0.854,0.11,1.726,0.13,2.589,0.132
	c5.441,0.011,10.884-0.066,16.323,0.03c3.701,0.066,6.992,1.312,9.659,4.009c5.999,6.067,3.979,16.62-3.861,19.984
	c-1.884,0.808-3.854,1.235-5.938,1.229c-9.893-0.032-19.785-0.015-29.678-0.015c-0.371,0-0.742-0.016-1.113-0.002
	c-0.58,0.021-0.936-0.158-0.932-0.824c0.015-2.35,0.009-4.699,0.005-7.049c-0.001-0.541,0.264-0.776,0.792-0.77
	c0.494,0.007,0.989-0.006,1.483-0.006c8.1,0,16.2-0.013,24.299,0.016c0.999,0.004,1.974-0.114,2.932-0.311
	c1.995-0.407,3.085-2.101,2.874-4.316c-0.172-1.807-1.559-3.045-3.55-3.054c-5.132-0.024-10.264-0.003-15.396-0.012
	c-1.912-0.003-3.832-0.027-5.705-0.444c-4.785-1.067-8.438-3.62-9.913-8.455c-2.089-6.843,1.49-13.039,8.016-15.301
	c1.523-0.528,3.091-0.795,4.722-0.783C535.063,448.386,540.01,448.363,544.956,448.363z"/>
<path fill-rule="evenodd" clip-rule="evenodd" fill="#02FFFC" d="M478.062,448.363c5.193,0,10.387-0.006,15.581,0.004
	c1.517,0.003,1.531,0.022,1.541,1.51c0.015,2.103-0.016,4.205,0.012,6.307c0.011,0.774-0.251,1.158-1.066,1.093
	c-0.431-0.035-0.865-0.005-1.298-0.005c-8.718,0-17.437-0.002-26.154,0.004c-0.734,0-1.467-0.064-2.163,0.337
	c-1.419,0.815-2.231,2.249-1.999,3.664c0.26,1.576,1.438,2.769,3.101,3.005c0.913,0.131,1.849,0.141,2.773,0.143
	c5.38,0.013,10.76-0.056,16.138,0.027c3.772,0.059,7.115,1.307,9.824,4.063c6.02,6.125,3.815,16.816-4.151,20.024
	c-1.848,0.744-3.751,1.146-5.769,1.139c-9.893-0.032-19.785-0.015-29.678-0.015c-0.186,0-0.371,0.004-0.557-0.001
	c-1.388-0.032-1.404-0.033-1.416-1.452c-0.016-1.979,0.035-3.958-0.02-5.936c-0.026-0.95,0.276-1.383,1.257-1.268
	c0.366,0.043,0.741,0.006,1.112,0.006c8.1,0,16.199-0.009,24.299,0.012c0.935,0.002,1.846-0.102,2.749-0.283
	c2.098-0.423,3.238-2.133,2.984-4.411c-0.2-1.784-1.602-2.977-3.619-2.984c-5.131-0.02-10.264,0.01-15.395-0.015
	c-1.848-0.009-3.696-0.058-5.524-0.405c-5.215-0.992-9.385-4.756-10.319-9.438c-1.363-6.833,2.323-12.301,8.378-14.373
	c1.528-0.523,3.097-0.772,4.726-0.762C468.292,448.385,473.177,448.363,478.062,448.363z"/>
<path fill-rule="evenodd" clip-rule="evenodd" fill="#04FFFC" d="M229.547,351.596c0-6.182,0-12.363,0-18.544
	c0-0.433,0.017-0.866,0.002-1.298c-0.021-0.627,0.274-0.886,0.892-0.885c3.461,0.009,6.923,0.012,10.384,0
	c0.81-0.003,0.86,0.503,0.858,1.107c-0.006,2.287-0.002,4.574-0.001,6.861c0,2.349,0.022,4.698-0.01,7.046
	c-0.012,0.838,0.216,1.215,1.147,1.21c6.305-0.033,12.61-0.039,18.915,0.004c1.052,0.007,1.221-0.445,1.214-1.334
	c-0.028-4.203-0.012-8.406-0.012-12.61c0-0.433,0.02-0.866-0.002-1.298c-0.036-0.702,0.27-0.996,0.979-0.993
	c3.399,0.016,6.799,0.017,10.199,0c0.725-0.003,1,0.322,0.962,1.01c-0.021,0.37-0.002,0.742-0.002,1.113
	c0,12.424,0.001,24.848,0,37.272c0,2.279,0.154,2.048-2.135,2.054c-2.782,0.007-5.563,0.009-8.345-0.001
	c-1.632-0.006-1.648-0.019-1.652-1.606c-0.009-4.204-0.003-8.407-0.003-12.61c0-0.433-0.014-0.865-0.006-1.298
	c0.009-0.523-0.212-0.808-0.76-0.8c-0.309,0.005-0.618-0.007-0.927-0.007c-5.934,0-11.868-0.001-17.802,0
	c-1.906,0-1.756-0.093-1.758,1.855c-0.003,4.265,0.004,8.53-0.004,12.795c-0.003,1.649-0.017,1.665-1.587,1.67
	c-2.967,0.012-5.934,0.011-8.901,0c-1.623-0.005-1.64-0.019-1.642-1.616C229.543,364.329,229.547,357.963,229.547,351.596z"/>
<path fill-rule="evenodd" clip-rule="evenodd" fill="#03FFFC" d="M244.795,489.919c-3.89,0-7.778-0.028-11.666,0.019
	c-1.019,0.013-1.204-0.706-1.495-1.355c-1.462-3.264-2.905-6.535-4.347-9.808c-2.908-6.602-5.807-13.207-8.723-19.805
	c-0.238-0.538-0.378-1.194-1.207-1.215c-0.921-0.024-1.091,0.692-1.353,1.291c-2.046,4.69-4.073,9.39-6.108,14.086
	c-2.23,5.148-4.487,10.286-6.671,15.453c-0.421,0.996-0.942,1.387-2.047,1.362c-3.335-0.074-6.673-0.024-10.01-0.03
	c-0.421,0-0.857,0.069-1.244-0.133c-0.3-0.701,0.157-1.238,0.371-1.777c3.94-9.914,8.01-19.774,12.417-29.493
	c0.79-1.741,1.623-3.463,2.397-5.211c0.746-1.687,2.078-2.725,3.703-3.437c2.226-0.976,4.543-1.521,6.996-1.515
	c3.088,0.007,6.152-0.043,9.123,1.103c2.254,0.869,3.891,2.261,4.946,4.438c1.991,4.109,3.837,8.282,5.588,12.497
	c3.075,7.402,6.116,14.819,9.165,22.232C244.765,488.949,245.048,489.251,244.795,489.919z"/>
<path fill-rule="evenodd" clip-rule="evenodd" fill="#03FFFC" d="M304.113,489.683c0.769-1.986,1.485-3.94,2.276-5.864
	c3.59-8.722,7.184-17.442,11.079-26.035c0.509-1.123,1.09-2.219,1.529-3.368c1.057-2.765,3.097-4.404,5.865-5.176
	c4.677-1.305,9.365-1.328,14.038,0.061c2.572,0.764,4.373,2.356,5.544,4.8c2.348,4.896,4.484,9.882,6.581,14.886
	c2.644,6.312,5.215,12.654,7.816,18.983c0.141,0.342,0.283,0.683,0.412,1.028c0.239,0.639-0.007,0.923-0.67,0.922
	c-3.707-0.004-7.413-0.015-11.12,0.005c-1.021,0.006-1.143-0.829-1.427-1.458c-1.271-2.809-2.489-5.64-3.734-8.459
	c-3.088-6.992-6.181-13.982-9.271-20.974c-0.05-0.112-0.082-0.233-0.135-0.344c-0.246-0.515-0.505-0.975-1.215-0.934
	c-0.612,0.036-0.843,0.436-1.045,0.898c-1.082,2.487-2.164,4.975-3.24,7.465c-3.255,7.524-6.507,15.05-9.758,22.576
	c-0.303,0.703-0.603,1.263-1.578,1.247c-3.768-0.061-7.537-0.029-11.306-0.043C304.596,489.899,304.435,489.795,304.113,489.683z"/>
<path fill-rule="evenodd" clip-rule="evenodd" fill="#0265FD" d="M356.377,410.253c0,9.884,0,19.769,0,29.653
	c0,0.37,0.007,0.741-0.001,1.111c-0.032,1.387-0.034,1.409-1.458,1.413c-4.324,0.012-8.648,0.01-12.973,0.001
	c-1.566-0.003-1.582-0.019-1.583-1.652c-0.004-13.653-0.002-27.307-0.002-40.959c0-6.549,0-13.097,0-19.646
	c0-0.433,0.024-0.866-0.002-1.297c-0.045-0.725,0.292-0.972,0.99-0.956c1.358,0.031,2.718,0.007,4.077,0.007
	c3.15,0,6.301-0.009,9.452,0.004c1.475,0.006,1.495,0.025,1.496,1.553C356.38,389.742,356.377,399.997,356.377,410.253z"/>
<path fill-rule="evenodd" clip-rule="evenodd" fill="#03FFFC" d="M396.856,449.075c0.431-0.454,0.815-0.334,1.159-0.335
	c3.771-0.01,7.544,0.019,11.314-0.023c0.956-0.011,1.551,0.309,2.174,1.059c3.743,4.508,7.558,8.957,11.354,13.42
	c1.257,1.479,1.599,1.493,2.841,0.006c3.521-4.213,7.057-8.413,10.5-12.688c1.055-1.309,2.14-1.921,3.894-1.829
	c3.269,0.172,6.552,0.049,9.828,0.049c0.536,0,1.071,0.001,1.807,0.001c-0.833,1.583-1.955,2.638-2.919,3.794
	c-5.889,7.057-11.81,14.086-17.741,21.105c-0.675,0.8-0.954,1.627-0.939,2.681c0.053,3.956,0.029,7.914,0.017,11.871
	c-0.005,1.438-0.026,1.464-1.407,1.472c-3.153,0.017-6.307-0.021-9.46,0.021c-0.951,0.013-1.29-0.292-1.279-1.272
	c0.045-4.019-0.037-8.038,0.051-12.056c0.027-1.278-0.391-2.215-1.177-3.151c-5.67-6.757-11.314-13.535-16.958-20.315
	C398.867,451.625,397.863,450.331,396.856,449.075z"/>
<path fill-rule="evenodd" clip-rule="evenodd" fill="#03FFFC" d="M393.446,489.663c-3.336,0-6.672,0.012-10.008-0.003
	c-4.313-0.02-8.442-0.854-12.311-2.836c-5.146-2.636-8.065-6.902-9.183-12.492c-0.462-2.313-0.391-4.646-0.352-6.994
	c0.094-5.559,0.03-11.119,0.031-16.679c0-0.433,0.023-0.866-0.002-1.297c-0.042-0.698,0.246-1.007,0.963-1.003
	c3.397,0.015,6.796,0.022,10.193-0.004c0.883-0.008,0.99,0.469,0.984,1.175c-0.02,2.224-0.007,4.448-0.007,6.672
	c0,3.953-0.016,7.907,0.006,11.86c0.017,3.044,0.863,5.832,2.697,8.293c2.01,2.695,4.739,4.049,8.052,4.28
	c3.331,0.233,6.668,0.094,10.001,0.113c3.707,0.021,7.413-0.004,11.12,0.009c1.487,0.005,1.501,0.026,1.511,1.557
	c0.014,1.978,0.017,3.954-0.001,5.931c-0.014,1.383-0.033,1.408-1.465,1.412C401.601,489.672,397.523,489.662,393.446,489.663z"/>
<path fill-rule="evenodd" clip-rule="evenodd" fill="#03FFFC" d="M208.263,330.87c5.498,0,10.996-0.007,16.493,0.004
	c1.42,0.003,1.44,0.028,1.453,1.423c0.019,2.039,0.019,4.077,0,6.115c-0.013,1.322-0.034,1.351-1.314,1.359
	c-2.903,0.019-5.807,0.003-8.71,0.008c-2.085,0.003-1.956-0.189-1.956,2.04c-0.001,9.328,0,18.655,0,27.982
	c0,0.371,0.008,0.741-0.001,1.112c-0.035,1.35-0.037,1.383-1.305,1.392c-3.088,0.02-6.177,0.019-9.266,0
	c-1.264-0.008-1.295-0.038-1.298-1.391c-0.013-5.374-0.005-10.748-0.005-16.122c0-4.448,0.006-8.895-0.003-13.343
	c-0.004-1.644-0.021-1.662-1.608-1.668c-3.026-0.013-6.053,0.007-9.081-0.009c-1.402-0.008-1.42-0.033-1.432-1.445
	c-0.017-2.038-0.021-4.077,0.001-6.115c0.014-1.3,0.039-1.334,1.355-1.337C197.144,330.862,202.704,330.87,208.263,330.87z"/>
<path fill-rule="evenodd" clip-rule="evenodd" fill="#02FFFC" d="M511.883,469.207c0,6.055,0,12.11,0,18.165
	c0,0.371-0.032,0.745,0.005,1.111c0.086,0.862-0.232,1.218-1.143,1.193c-1.977-0.052-3.954-0.015-5.932-0.015
	c-1.174,0-2.348,0.014-3.521-0.004c-1.368-0.021-1.368-0.032-1.398-1.469c-0.004-0.186,0-0.371,0-0.557
	c0-12.419-0.003-24.838,0.002-37.258c0.001-2.207-0.207-2.002,1.97-2.01c2.78-0.008,5.561-0.008,8.341,0.001
	c1.662,0.005,1.673,0.016,1.675,1.749C511.886,456.479,511.883,462.843,511.883,469.207z"/>
<path fill-rule="evenodd" clip-rule="evenodd" fill="#0465D6" d="M167.161,408.006L166.983,408l-0.177,0.008
	c-0.63-0.464-1.265-0.92-1.887-1.394c-1.144-0.871-2.465-1.522-3.363-2.7c0.555-0.397,0.57-1.062,0.761-1.622
	c1.028-3.013,2.004-6.043,3.036-9.054c0.191-0.56,0.208-1.228,0.77-1.621c1.833,0.779,3.242,2.195,4.889,3.254
	c0.527,0.339,0.46,0.759,0.277,1.281C169.898,400.098,168.533,404.053,167.161,408.006z"/>
<path fill-rule="evenodd" clip-rule="evenodd" fill="#0591FD" d="M38.158,374.246c0.111,0.013,0.221,0.031,0.33,0.052
	c-0.055,0.548-0.112,1.092,0.069,1.636c1.468,4.398,2.929,8.798,4.392,13.198c-0.019,0.114-0.037,0.228-0.052,0.341
	c-1.231,0.87-2.462,1.739-3.694,2.608c-0.09-0.013-0.179-0.03-0.268-0.05c-1.332-4.215-2.663-8.43-3.994-12.645
	c-0.111-0.351-0.182-0.722-0.342-1.049c-0.343-0.695-0.122-1.137,0.501-1.527c0.676-0.422,1.312-0.911,1.952-1.388
	C37.49,375.098,38.022,374.855,38.158,374.246z"/>
<path fill-rule="evenodd" clip-rule="evenodd" fill="#0591FD" d="M166.361,374.684c0,0,0.142-0.058,0.141-0.058
	c0.928,1.005,2.11,1.684,3.214,2.454c0.717,0.5,0.909,0.986,0.599,1.851c-1.468,4.104-2.867,8.234-4.291,12.354
	c-1.393-0.806-2.487-2.06-4.008-2.675c-0.111-0.771,0.301-1.42,0.507-2.113C163.701,382.527,165.459,378.745,166.361,374.684z"/>
<path fill-rule="evenodd" clip-rule="evenodd" fill="#0465D6" d="M38.937,392.03c0.088,0.021,0.178,0.038,0.268,0.05
	c1.167,4.652,2.866,9.132,4.403,13.666c-1.107,1.137-2.661,1.716-3.69,2.95l-0.162,0.001c0,0-0.161-0.013-0.161-0.014
	c-1.306-4.116-2.61-8.231-3.919-12.346c-0.469-1.475-0.47-1.468,0.782-2.388C37.3,393.331,38.242,392.84,38.937,392.03z"/>
<path fill-rule="evenodd" clip-rule="evenodd" fill="#0038D4" d="M162.017,388.61c1.521,0.615,2.615,1.869,4.008,2.675
	c0.056,0.104,0.088,0.215,0.099,0.332c-0.562,0.393-0.579,1.061-0.77,1.621c-1.031,3.011-2.008,6.042-3.036,9.054
	c-0.191,0.561-0.206,1.225-0.761,1.622c-1.579-0.519-2.643-1.825-4.031-2.637c1.188-3.49,2.386-6.979,3.557-10.476
	c0.233-0.695,0.577-1.372,0.536-2.139C161.751,388.646,161.884,388.628,162.017,388.61z"/>
<path fill-rule="evenodd" clip-rule="evenodd" fill="#00049A" d="M157.526,401.277c1.388,0.812,2.452,2.118,4.031,2.637
	c0.897,1.178,2.218,1.829,3.362,2.7c0.622,0.474,1.257,0.93,1.887,1.394c0.215,1.882-0.797,3.472-1.347,5.139
	c-2.395,7.257-4.954,14.459-7.425,21.69c-1.535,4.491-3.01,9.002-4.529,13.498c-2.229,6.599-4.467,13.195-6.714,19.788
	c-0.457,1.34-0.999,2.645-1.349,4.026c-0.364,1.438-0.479,1.458-1.894,1.497c-0.309,0.009-0.618,0.001-0.927,0.001
	c-16.633-0.003-33.271,0.25-49.896-0.104c-10.192-0.216-20.38-0.075-30.568-0.256c-1.52-0.026-1.553-0.022-2.05-1.563
	c-1.814-5.633-3.586-11.279-5.409-16.909c-1.367-4.222-2.809-8.419-4.181-12.639c-2.957-9.089-5.928-18.173-8.805-27.286
	c-0.646-2.046-1.527-4.035-1.796-6.194c1.029-1.234,2.583-1.813,3.69-2.95c1.27-0.823,2.59-1.573,3.725-2.592
	c5.259-3.442,10.295-7.205,15.447-10.802c6.769-4.725,13.51-9.492,20.256-14.25c3.826-2.698,7.637-5.417,11.456-8.124
	c2.965-2.102,5.933-4.199,8.899-6.299c0.663-0.469,1.25-0.671,1.939,0.061c0.541,0.575,1.25,0.995,1.9,1.462
	c9.656,6.934,19.313,13.867,28.974,20.795C143.309,391.094,150.418,396.185,157.526,401.277z M143.854,413.112
	c0.982,0.317,1.898,0.89,3.021,0.608c1.681-0.421,2.65-1.497,3.035-3.142c0.373-1.591-0.358-3.451-1.708-4.411
	c-2.354-1.676-5.505-0.333-5.918,2.535c-0.115,0.799-0.081,1.597,0.191,2.377c0.103,0.295,0.481,0.623-0.021,0.979
	c-0.362-0.194-0.729-0.421-1.118-0.596c-2.09-0.938-4.357-0.479-5.921,1.215c-1.286,1.393-1.803,3.056-1.658,4.939
	c0.201,2.621,2.13,4.861,4.495,5.203c2.58,0.374,4.937-1.143,5.904-3.755c0.742-2.003,0.349-3.882-0.53-5.725
	C143.704,413.268,143.78,413.191,143.854,413.112z M58.075,441.629c0.02,2.516,0.612,4.193,1.694,5.506
	c1.965,2.383,5.155,3.025,7.84,1.578c4.614-2.487,5.12-9.609,0.867-12.672c-2.151-1.55-4.471-1.705-6.774-0.346
	C59.195,437.176,58.139,439.506,58.075,441.629z M137.158,430.69c-0.022-0.463-0.019-0.834-0.06-1.201
	c-0.548-4.834-5.472-7.616-9.512-5.378c-4.601,2.549-5.047,9.584-0.804,12.688c2.292,1.677,5.308,1.604,7.547-0.224
	C136.213,435.04,137.11,433.017,137.158,430.69z M116.441,433.486c-0.027-0.349-0.035-0.844-0.108-1.33
	c-0.727-4.865-5.971-7.386-9.897-4.764c-3.825,2.554-4.424,8.392-1.199,11.668c2.292,2.326,5.616,2.61,8.231,0.648
	C115.479,438.2,116.406,436.126,116.441,433.486z M88.028,428.15c0.027,0.345,0.02,0.846,0.114,1.326
	c0.511,2.607,1.904,4.576,4.459,5.44c2.422,0.818,4.625,0.208,6.459-1.587c2.416-2.363,2.962-6.191,1.341-9.218
	c-1.891-3.529-6.112-4.609-9.298-2.319C89.005,423.301,88.052,425.436,88.028,428.15z M95.266,444.602
	c-0.015-0.212-0.018-0.707-0.086-1.193c-0.379-2.679-2.479-5.104-4.911-5.693c-2.555-0.621-5.183,0.396-6.824,2.64
	c-1.956,2.675-1.978,6.525-0.006,9.166c1.247,1.669,2.894,2.637,5.034,2.649C92.226,452.192,95.218,448.985,95.266,444.602z
	 M96.173,409.843c0.028,0.338,0.042,0.833,0.113,1.319c0.412,2.836,2.705,5.304,5.301,5.723c2.838,0.458,5.515-0.886,6.914-3.543
	c1.293-2.455,1.331-4.974,0.061-7.441c-1.8-3.498-5.937-4.624-9.115-2.495C97.229,404.891,96.23,407.053,96.173,409.843z
	 M68.533,411.19c0.038-1.18-0.336-2.333-1.056-3.383c-2.004-2.921-5.913-3.104-8.247-0.387c-1.665,1.938-1.97,4.825-0.751,7.11
	c1.072,2.01,2.953,3.022,5.2,2.801C66.467,417.056,68.56,414.451,68.533,411.19z M108.38,452.06
	c-0.039-3.028-2.196-5.576-4.925-5.817c-2.677-0.237-5.098,1.744-5.768,4.722c-0.054,0.241-0.123,0.48-0.151,0.726
	c-0.422,3.553,2.343,6.646,5.735,6.424C106.114,457.926,108.42,455.192,108.38,452.06z M82.86,432.465
	c0.005-2.901-2.039-5.444-4.7-5.848c-2.415-0.365-4.965,1.34-5.808,3.926c-0.189,0.581-0.307,1.203-0.345,1.813
	c-0.234,3.713,2.76,6.607,6.232,6.057C80.781,438.01,82.855,435.34,82.86,432.465z M143.533,443.913
	c-2.868-0.024-5.172,2.211-5.564,5.397c-0.37,3.01,1.762,5.994,4.609,6.45c2.758,0.442,5.518-1.718,6.074-4.759
	c0.056-0.304,0.109-0.609,0.129-0.917C149,446.758,146.601,443.939,143.533,443.913z M125.646,442.111
	c0.021-3.051-2.105-5.516-4.917-5.7c-2.766-0.181-5.067,1.959-5.366,4.99c-0.297,3.012,2.027,5.869,4.945,6.082
	C123.197,447.694,125.625,445.251,125.646,442.111z M133.287,441.078c0.02,2.339,1.827,4.294,3.984,4.308
	c2.027,0.014,3.791-1.833,3.828-4.009c0.04-2.333-1.94-4.446-4.118-4.396C134.906,437.03,133.269,438.847,133.287,441.078z
	 M115.82,420.271c0.027-2.273-1.827-4.316-3.956-4.358c-2.074-0.042-3.791,1.711-3.863,3.941c-0.076,2.371,1.804,4.437,4.036,4.432
	C114.104,424.28,115.793,422.486,115.82,420.271z M126.351,418.282c-0.029-2.323-1.878-4.292-4.019-4.279
	c-2.134,0.013-3.833,1.916-3.766,4.219c0.067,2.319,1.953,4.236,4.109,4.177C124.734,422.342,126.379,420.499,126.351,418.282z
	 M146.944,430.18c0.039-2.298-1.758-4.302-3.917-4.368c-2.078-0.063-3.808,1.66-3.904,3.888c-0.101,2.329,1.829,4.486,4.015,4.487
	C145.206,434.188,146.907,432.396,146.944,430.18z M94.803,415.681c0.028-2.328-1.745-4.299-3.915-4.353
	c-2.177-0.053-3.884,1.743-3.872,4.074c0.012,2.332,1.831,4.277,3.997,4.276C93.104,419.678,94.776,417.913,94.803,415.681z
	 M83.166,419.393c-2.122,0.035-3.705,1.753-3.708,4.025c-0.004,2.33,1.788,4.241,3.989,4.253c2.147,0.011,3.887-1.869,3.829-4.137
	C87.214,421.209,85.376,419.355,83.166,419.393z M61.739,427.322c2.086-0.035,3.733-1.824,3.719-4.04
	c-0.015-2.327-1.814-4.226-4.014-4.235c-2.218-0.01-3.823,1.745-3.77,4.125C57.727,425.539,59.509,427.358,61.739,427.322z
	 M150.394,417.621c0.036-1.44-1.066-2.707-2.404-2.765c-1.391-0.06-2.623,1.208-2.655,2.729c-0.031,1.462,1.047,2.7,2.395,2.752
	C149.134,420.392,150.355,419.146,150.394,417.621z M73.687,420.631c-0.021-1.513-1.084-2.656-2.465-2.65
	c-1.421,0.007-2.558,1.276-2.53,2.826c0.025,1.46,1.165,2.693,2.483,2.689C72.54,423.492,73.708,422.159,73.687,420.631z
	 M104.423,420.179c-1.398,0.039-2.556,1.38-2.486,2.879c0.067,1.449,1.262,2.665,2.571,2.618c1.354-0.05,2.549-1.454,2.488-2.926
	C106.936,421.275,105.8,420.141,104.423,420.179z M113.278,446.479c0.041-1.407-1.088-2.734-2.389-2.807
	c-1.34-0.074-2.621,1.243-2.667,2.744c-0.045,1.463,1.021,2.705,2.376,2.767C111.995,449.247,113.234,447.997,113.278,446.479z
	 M57.475,452.778c-0.149,1.459,1.005,2.917,2.371,2.995c1.282,0.073,2.516-1.113,2.655-2.555c0.14-1.45-0.839-2.777-2.172-2.942
	C58.925,450.103,57.632,451.236,57.475,452.778z M59.873,433.956c1.391,0.028,2.61-1.267,2.614-2.774
	c0.004-1.438-1.139-2.715-2.447-2.737c-1.374-0.023-2.611,1.299-2.617,2.795C57.418,432.687,58.538,433.93,59.873,433.956z
	 M113.666,411.68c0.015,1.566,1.057,2.681,2.479,2.651c1.38-0.029,2.438-1.202,2.457-2.723c0.018-1.493-1.075-2.767-2.397-2.793
	C114.816,408.786,113.65,410.104,113.666,411.68z M145.841,442.45c1.426-0.03,2.516-1.328,2.457-2.925
	c-0.056-1.538-1.177-2.666-2.565-2.582c-1.362,0.082-2.383,1.299-2.367,2.82C143.383,441.302,144.468,442.479,145.841,442.45z
	 M121.626,426.765c0.018-1.54-1.025-2.747-2.393-2.771c-1.389-0.023-2.571,1.299-2.55,2.854c0.021,1.528,1.114,2.69,2.499,2.657
	C120.564,429.471,121.608,428.301,121.626,426.765z M71.126,429.159c-0.004-1.558-1.042-2.686-2.458-2.673
	c-1.398,0.013-2.443,1.148-2.476,2.69c-0.032,1.521,1.021,2.776,2.359,2.813C69.939,432.028,71.13,430.721,71.126,429.159z
	 M103.425,441.407c0.016-1.576-0.978-2.694-2.405-2.707c-1.407-0.013-2.476,1.098-2.531,2.628c-0.057,1.583,1.098,2.895,2.505,2.848
	C102.336,444.131,103.41,442.906,103.425,441.407z"/>
<path fill-rule="evenodd" clip-rule="evenodd" fill="#FCFDFF" d="M382.514,410.235c0-6.673,0-13.346,0-20.019
	c0-0.433,0.02-0.866,0.005-1.297c-0.024-0.726,0.343-0.955,1.028-0.945c1.729,0.025,3.461-0.058,5.163,0.355
	c2.281,0.554,3.65,1.962,4.036,4.291c0.192,1.16,0.284,2.326,0.282,3.505c-0.011,9.145-0.011,18.289,0,27.433
	c0.002,1.303-0.089,2.594-0.292,3.876c-0.428,2.701-1.842,4.136-4.51,4.721c-1.592,0.349-3.196,0.23-4.799,0.27
	c-0.623,0.015-0.907-0.263-0.904-0.872c0.002-0.433-0.01-0.865-0.01-1.298C382.514,423.581,382.514,416.908,382.514,410.235z"/>
<path fill-rule="evenodd" clip-rule="evenodd" fill="#FCFDFF" d="M257.668,410.198c0-5.372,0-10.746,0-16.119
	c0-0.989,0.053-1.962,0.314-2.934c0.546-2.027,1.874-3.143,3.889-3.464c1.104-0.176,2.209-0.093,3.3,0.224
	c1.498,0.434,2.435,1.402,2.878,2.867c0.288,0.951,0.393,1.927,0.392,2.925c-0.009,10.993-0.005,21.986-0.007,32.979
	c0,0.309-0.003,0.618-0.024,0.926c-0.306,4.389-4.149,6.568-8.125,4.618c-1.124-0.552-1.807-1.46-2.208-2.613
	c-0.349-1.006-0.415-2.048-0.413-3.104C257.673,421.068,257.668,415.634,257.668,410.198z"/>
<path fill-rule="evenodd" clip-rule="evenodd" fill="#0064FD" d="M162.017,388.61c-0.133,0.018-0.265,0.035-0.398,0.053
	c-0.029-0.561-0.402-0.836-0.831-1.134c-1.872-1.301-3.721-2.636-5.572-3.967c-6.354-4.568-12.702-9.145-19.06-13.707
	c-3.705-2.658-7.432-5.285-11.135-7.944c-6.606-4.744-13.197-9.51-19.808-14.248c-1.46-1.046-1.498-1.029-3.042,0.046
	c-4.805,3.346-9.611,6.691-14.395,10.065c-9.418,6.643-18.816,13.315-28.235,19.957c-4.785,3.375-9.606,6.699-14.39,10.075
	c-0.707,0.499-1.334,1.102-2.2,1.326c-1.463-4.399-2.924-8.8-4.392-13.198c-0.182-0.544-0.125-1.088-0.069-1.636
	c2.752-1.535,5.167-3.563,7.766-5.324c3.774-2.559,7.437-5.282,11.166-7.91c7.81-5.504,15.633-10.989,23.448-16.485
	c6.706-4.717,13.403-9.446,20.115-14.154c1.891-1.326,1.892-1.277,3.779,0.084c4.797,3.462,9.61,6.902,14.417,10.35
	c6.56,4.707,13.123,9.409,19.679,14.12c6.207,4.46,12.401,8.936,18.61,13.392c2.954,2.12,5.929,4.209,8.894,6.313
	c-0.902,4.061-2.66,7.843-3.838,11.813C162.318,387.19,161.905,387.839,162.017,388.61z"/>
<path fill-rule="evenodd" clip-rule="evenodd" fill="#0027D4" d="M42.95,389.131c0.866-0.224,1.494-0.827,2.2-1.326
	c4.784-3.376,9.605-6.7,14.39-10.075c9.419-6.642,18.817-13.313,28.235-19.957c4.784-3.375,9.59-6.72,14.395-10.065
	c1.544-1.075,1.583-1.092,3.042-0.046c6.61,4.738,13.201,9.503,19.808,14.248c3.704,2.659,7.431,5.286,11.135,7.944
	c6.358,4.563,12.706,9.139,19.06,13.707c1.852,1.331,3.7,2.666,5.572,3.967c0.428,0.298,0.802,0.573,0.831,1.134
	c0.042,0.767-0.303,1.444-0.536,2.139c-1.17,3.497-2.368,6.985-3.557,10.476c-7.108-5.093-14.218-10.184-21.323-15.28
	c-9.66-6.928-19.317-13.861-28.974-20.795c-0.65-0.467-1.359-0.887-1.9-1.462c-0.689-0.732-1.277-0.53-1.939-0.061
	c-2.966,2.101-5.934,4.198-8.899,6.299c-3.819,2.707-7.63,5.426-11.456,8.124c-6.746,4.758-13.487,9.524-20.256,14.25
	c-5.152,3.597-10.188,7.359-15.447,10.802c-1.312-4.614-2.872-9.148-4.434-13.682C42.913,389.359,42.931,389.245,42.95,389.131z"/>
<path fill-rule="evenodd" clip-rule="evenodd" fill="#0038D4" d="M42.898,389.473c1.562,4.534,3.123,9.067,4.434,13.682
	c-1.134,1.019-2.455,1.769-3.725,2.592c-1.538-4.533-3.237-9.014-4.403-13.666C40.436,391.211,41.667,390.342,42.898,389.473z"/>
<path fill-rule="evenodd" clip-rule="evenodd" fill="#00FBFA" d="M143.626,413.342c0.878,1.843,1.271,3.722,0.53,5.725
	c-0.967,2.612-3.324,4.129-5.904,3.755c-2.364-0.342-4.293-2.582-4.495-5.203c-0.145-1.884,0.372-3.547,1.658-4.939
	c1.564-1.694,3.831-2.153,5.921-1.215c0.389,0.175,0.755,0.401,1.118,0.596c0.502-0.356,0.124-0.685,0.021-0.979
	c-0.272-0.78-0.306-1.578-0.191-2.377c0.413-2.868,3.563-4.211,5.918-2.535c1.35,0.96,2.081,2.82,1.708,4.411
	c-0.385,1.645-1.354,2.721-3.035,3.142c-1.122,0.281-2.038-0.291-3.021-0.608c-0.073-0.163-0.196-0.333-0.363-0.182
	C143.33,413.078,143.51,413.225,143.626,413.342z"/>
<path fill-rule="evenodd" clip-rule="evenodd" fill="#00FBFA" d="M58.075,441.629c0.064-2.123,1.12-4.453,3.627-5.934
	c2.303-1.359,4.623-1.204,6.774,0.346c4.253,3.063,3.747,10.185-0.867,12.672c-2.685,1.447-5.875,0.805-7.84-1.578
	C58.687,445.822,58.095,444.145,58.075,441.629z"/>
<path fill-rule="evenodd" clip-rule="evenodd" fill="#00FBFA" d="M137.158,430.69c-0.047,2.326-0.944,4.35-2.828,5.886
	c-2.239,1.827-5.255,1.9-7.547,0.224c-4.243-3.104-3.797-10.14,0.804-12.688c4.04-2.238,8.963,0.544,9.512,5.378
	C137.139,429.856,137.136,430.228,137.158,430.69z"/>
<path fill-rule="evenodd" clip-rule="evenodd" fill="#00FBFA" d="M116.441,433.486c-0.036,2.64-0.962,4.714-2.973,6.223
	c-2.615,1.962-5.939,1.678-8.231-0.648c-3.226-3.276-2.626-9.114,1.199-11.668c3.926-2.622,9.17-0.102,9.897,4.764
	C116.406,432.643,116.414,433.138,116.441,433.486z"/>
<path fill-rule="evenodd" clip-rule="evenodd" fill="#00FBFA" d="M88.028,428.15c0.024-2.715,0.978-4.85,3.076-6.357
	c3.186-2.29,7.408-1.21,9.298,2.319c1.621,3.026,1.074,6.854-1.341,9.218c-1.834,1.795-4.037,2.405-6.459,1.587
	c-2.556-0.864-3.949-2.833-4.459-5.44C88.048,428.996,88.055,428.495,88.028,428.15z"/>
<path fill-rule="evenodd" clip-rule="evenodd" fill="#00FBFA" d="M95.266,444.602c-0.047,4.384-3.04,7.591-6.794,7.568
	c-2.14-0.013-3.787-0.98-5.034-2.649c-1.971-2.641-1.949-6.491,0.006-9.166c1.641-2.244,4.269-3.261,6.824-2.64
	c2.432,0.59,4.531,3.015,4.911,5.693C95.248,443.895,95.251,444.39,95.266,444.602z"/>
<path fill-rule="evenodd" clip-rule="evenodd" fill="#00FBFA" d="M96.173,409.843c0.057-2.79,1.056-4.952,3.274-6.438
	c3.178-2.129,7.314-1.003,9.115,2.495c1.27,2.468,1.232,4.986-0.061,7.441c-1.399,2.657-4.076,4.001-6.914,3.543
	c-2.596-0.419-4.889-2.887-5.301-5.723C96.216,410.676,96.202,410.181,96.173,409.843z"/>
<path fill-rule="evenodd" clip-rule="evenodd" fill="#00FBFA" d="M68.533,411.19c0.027,3.261-2.066,5.865-4.854,6.142
	c-2.247,0.222-4.127-0.791-5.2-2.801c-1.219-2.285-0.914-5.173,0.751-7.11c2.334-2.718,6.243-2.534,8.247,0.387
	C68.196,408.857,68.57,410.011,68.533,411.19z"/>
<path fill-rule="evenodd" clip-rule="evenodd" fill="#00FBFA" d="M108.38,452.06c0.041,3.133-2.266,5.866-5.109,6.054
	c-3.392,0.223-6.157-2.871-5.735-6.424c0.029-0.245,0.097-0.484,0.151-0.726c0.669-2.978,3.09-4.959,5.768-4.722
	C106.184,446.483,108.341,449.031,108.38,452.06z"/>
<path fill-rule="evenodd" clip-rule="evenodd" fill="#00FBFA" d="M82.86,432.465c-0.005,2.875-2.079,5.545-4.62,5.947
	c-3.473,0.551-6.466-2.344-6.232-6.057c0.039-0.609,0.156-1.231,0.345-1.813c0.842-2.586,3.393-4.291,5.808-3.926
	C80.821,427.021,82.866,429.563,82.86,432.465z"/>
<path fill-rule="evenodd" clip-rule="evenodd" fill="#00FBFA" d="M143.533,443.913c3.067,0.026,5.467,2.845,5.248,6.172
	c-0.021,0.308-0.074,0.613-0.129,0.917c-0.556,3.041-3.316,5.201-6.074,4.759c-2.847-0.456-4.979-3.44-4.609-6.45
	C138.361,446.124,140.666,443.889,143.533,443.913z"/>
<path fill-rule="evenodd" clip-rule="evenodd" fill="#00FBFA" d="M125.646,442.111c-0.022,3.14-2.45,5.583-5.338,5.372
	c-2.918-0.213-5.242-3.07-4.945-6.082c0.298-3.031,2.6-5.171,5.366-4.99C123.542,436.596,125.668,439.061,125.646,442.111z"/>
<path fill-rule="evenodd" clip-rule="evenodd" fill="#00FBFA" d="M133.287,441.078c-0.018-2.231,1.619-4.048,3.693-4.097
	c2.178-0.051,4.158,2.063,4.118,4.396c-0.037,2.176-1.8,4.022-3.828,4.009C135.113,445.372,133.306,443.417,133.287,441.078z"/>
<path fill-rule="evenodd" clip-rule="evenodd" fill="#00FBFA" d="M115.82,420.271c-0.026,2.216-1.716,4.01-3.783,4.015
	c-2.231,0.005-4.111-2.061-4.036-4.432c0.072-2.23,1.789-3.983,3.863-3.941C113.993,415.954,115.847,417.997,115.82,420.271z"/>
<path fill-rule="evenodd" clip-rule="evenodd" fill="#00FBFA" d="M126.351,418.282c0.028,2.217-1.617,4.06-3.675,4.116
	c-2.157,0.06-4.042-1.857-4.109-4.177c-0.066-2.303,1.632-4.206,3.766-4.219C124.473,413.99,126.322,415.959,126.351,418.282z"/>
<path fill-rule="evenodd" clip-rule="evenodd" fill="#00FBFA" d="M146.944,430.18c-0.038,2.217-1.739,4.008-3.806,4.007
	c-2.186-0.001-4.116-2.158-4.015-4.487c0.096-2.228,1.826-3.95,3.904-3.888C145.186,425.878,146.983,427.882,146.944,430.18z"/>
<path fill-rule="evenodd" clip-rule="evenodd" fill="#00FBFA" d="M94.803,415.681c-0.027,2.232-1.699,3.997-3.79,3.998
	c-2.166,0.001-3.984-1.944-3.997-4.276c-0.012-2.331,1.695-4.127,3.872-4.074C93.058,411.382,94.831,413.353,94.803,415.681z"/>
<path fill-rule="evenodd" clip-rule="evenodd" fill="#00FBFA" d="M83.166,419.393c2.211-0.037,4.049,1.816,4.109,4.142
	c0.058,2.268-1.682,4.147-3.829,4.137c-2.201-0.012-3.993-1.923-3.989-4.253C79.461,421.146,81.043,419.428,83.166,419.393z"/>
<path fill-rule="evenodd" clip-rule="evenodd" fill="#00FBFA" d="M61.739,427.322c-2.23,0.036-4.012-1.783-4.064-4.15
	c-0.053-2.38,1.552-4.135,3.77-4.125c2.2,0.01,3.999,1.908,4.014,4.235C65.473,425.498,63.825,427.287,61.739,427.322z"/>
<path fill-rule="evenodd" clip-rule="evenodd" fill="#00FBFA" d="M150.394,417.621c-0.038,1.525-1.259,2.771-2.664,2.717
	c-1.347-0.052-2.425-1.29-2.395-2.752c0.032-1.521,1.264-2.789,2.655-2.729C149.327,414.914,150.429,416.181,150.394,417.621z"/>
<path fill-rule="evenodd" clip-rule="evenodd" fill="#00FBFA" d="M73.687,420.631c0.021,1.528-1.147,2.861-2.512,2.865
	c-1.319,0.004-2.458-1.229-2.483-2.689c-0.027-1.55,1.109-2.819,2.53-2.826C72.603,417.975,73.667,419.118,73.687,420.631z"/>
<path fill-rule="evenodd" clip-rule="evenodd" fill="#00FBFA" d="M104.423,420.179c1.377-0.038,2.513,1.097,2.573,2.571
	c0.061,1.472-1.134,2.876-2.488,2.926c-1.31,0.047-2.504-1.169-2.571-2.618C101.867,421.559,103.025,420.218,104.423,420.179z"/>
<path fill-rule="evenodd" clip-rule="evenodd" fill="#00FBFA" d="M113.278,446.479c-0.044,1.519-1.283,2.769-2.679,2.704
	c-1.355-0.062-2.421-1.304-2.376-2.767c0.046-1.501,1.327-2.818,2.667-2.744C112.19,443.744,113.319,445.071,113.278,446.479z"/>
<path fill-rule="evenodd" clip-rule="evenodd" fill="#00FBFA" d="M57.475,452.778c0.157-1.542,1.45-2.676,2.854-2.502
	c1.333,0.165,2.313,1.492,2.172,2.942c-0.14,1.441-1.373,2.628-2.655,2.555C58.48,455.695,57.326,454.237,57.475,452.778z"/>
<path fill-rule="evenodd" clip-rule="evenodd" fill="#00FBFA" d="M59.873,433.956c-1.334-0.026-2.455-1.27-2.45-2.717
	c0.005-1.496,1.243-2.818,2.617-2.795c1.309,0.022,2.451,1.3,2.447,2.737C62.483,432.689,61.263,433.984,59.873,433.956z"/>
<path fill-rule="evenodd" clip-rule="evenodd" fill="#00FBFA" d="M113.666,411.68c-0.015-1.576,1.151-2.894,2.538-2.864
	c1.322,0.026,2.415,1.3,2.397,2.793c-0.018,1.521-1.077,2.693-2.457,2.723C114.722,414.36,113.681,413.246,113.666,411.68z"/>
<path fill-rule="evenodd" clip-rule="evenodd" fill="#00FBFA" d="M145.841,442.45c-1.374,0.028-2.458-1.148-2.475-2.687
	c-0.016-1.521,1.004-2.738,2.367-2.82c1.388-0.084,2.509,1.044,2.565,2.582C148.357,441.122,147.267,442.42,145.841,442.45z"/>
<path fill-rule="evenodd" clip-rule="evenodd" fill="#00FBFA" d="M121.626,426.765c-0.018,1.536-1.062,2.706-2.444,2.74
	c-1.385,0.033-2.479-1.129-2.499-2.657c-0.021-1.556,1.161-2.878,2.55-2.854C120.601,424.018,121.644,425.225,121.626,426.765z"/>
<path fill-rule="evenodd" clip-rule="evenodd" fill="#00FBFA" d="M71.126,429.159c0.004,1.562-1.187,2.869-2.576,2.831
	c-1.338-0.037-2.391-1.293-2.359-2.813c0.033-1.542,1.078-2.678,2.476-2.69C70.084,426.474,71.122,427.602,71.126,429.159z"/>
<path fill-rule="evenodd" clip-rule="evenodd" fill="#00FBFA" d="M103.425,441.407c-0.015,1.499-1.089,2.724-2.43,2.769
	c-1.408,0.047-2.562-1.265-2.505-2.848c0.055-1.53,1.124-2.641,2.531-2.628C102.447,438.713,103.441,439.831,103.425,441.407z"/>
<path fill-rule="evenodd" clip-rule="evenodd" fill="#00049A" d="M143.626,413.342c-0.116-0.117-0.296-0.264-0.135-0.411
	c0.167-0.151,0.29,0.019,0.363,0.182C143.78,413.191,143.704,413.268,143.626,413.342z"/>
</svg>
