<svg id="svg" version="1.1" xmlns="http://www.w3.org/2000/svg" xmlns:xlink="http://www.w3.org/1999/xlink" width="400" height="200" viewBox="0, 0, 400,200"><g id="svgg"><path id="path0" d="M134.833 55.250 L 134.833 57.667 138.083 57.667 L 141.333 57.667 141.333 66.417 L 141.333 75.167 144.583 75.167 L 147.833 75.167 147.833 66.417 L 147.833 57.667 151.083 57.667 L 154.333 57.667 154.333 55.250 L 154.333 52.833 144.583 52.833 L 134.833 52.833 134.833 55.250 M156.000 64.000 L 156.000 75.167 159.333 75.167 L 162.667 75.167 162.667 70.750 L 162.667 66.333 168.333 66.333 L 174.000 66.333 174.000 70.750 L 174.000 75.167 177.333 75.167 L 180.667 75.167 180.667 64.000 L 180.667 52.833 177.333 52.833 L 174.000 52.833 174.000 57.167 L 174.000 61.500 168.333 61.500 L 162.667 61.500 162.667 57.167 L 162.667 52.833 159.333 52.833 L 156.000 52.833 156.000 64.000 M188.583 52.947 C 188.209 53.032,187.362 53.385,186.527 53.804 C 183.262 55.442,182.059 61.572,184.590 63.672 C 184.755 63.809,184.679 64.030,184.237 64.686 C 182.233 67.664,183.254 72.072,186.372 73.899 C 188.352 75.060,188.117 75.036,198.375 75.121 L 207.667 75.197 207.667 72.765 L 207.667 70.333 200.030 70.333 C 191.416 70.333,190.935 70.281,190.326 69.283 C 189.785 68.396,190.033 67.095,190.824 66.672 C 191.032 66.561,194.059 66.500,199.406 66.500 L 207.667 66.500 207.667 64.000 L 207.667 61.500 199.650 61.500 C 192.576 61.500,191.566 61.468,191.060 61.228 C 190.059 60.753,189.706 59.532,190.306 58.622 C 190.958 57.634,190.537 57.678,199.458 57.672 L 207.667 57.667 207.667 55.250 L 207.667 52.833 198.292 52.853 C 193.135 52.863,188.767 52.906,188.583 52.947 M170.667 115.853 C 169.674 116.012,169.503 116.071,168.255 116.679 C 165.659 117.946,165.667 117.907,165.667 129.342 L 165.667 138.500 169.000 138.500 L 172.333 138.500 172.333 129.837 L 172.333 121.174 172.758 120.896 C 173.362 120.500,173.849 120.809,174.671 122.110 C 175.035 122.687,175.333 123.191,175.333 123.231 C 175.333 123.271,175.587 123.854,175.897 124.527 C 176.207 125.200,176.703 126.425,177.000 127.250 C 177.297 128.075,177.643 128.986,177.770 129.275 C 177.896 129.564,178.000 129.908,178.000 130.039 C 178.000 130.170,178.051 130.328,178.113 130.390 C 178.174 130.452,178.424 131.102,178.667 131.833 C 178.910 132.565,179.159 133.214,179.221 133.276 C 179.283 133.338,179.333 133.499,179.333 133.635 C 179.333 134.435,180.589 136.229,181.884 137.279 C 185.026 139.826,192.231 139.119,194.358 136.055 L 194.917 135.250 194.963 125.542 L 195.010 115.833 191.672 115.833 L 188.333 115.833 188.333 124.474 C 188.333 132.634,188.316 133.130,188.029 133.391 C 187.281 134.067,186.256 133.517,185.681 132.131 C 185.480 131.647,185.248 131.100,185.165 130.917 C 185.083 130.733,184.669 129.496,184.245 128.167 C 180.739 117.176,177.984 114.678,170.667 115.853 M146.833 116.269 C 143.786 116.931,143.235 117.585,140.661 123.583 C 140.583 123.767,140.360 124.292,140.167 124.750 C 139.973 125.208,139.749 125.733,139.669 125.917 C 139.512 126.274,139.235 126.922,138.670 128.250 C 138.475 128.708,138.247 129.233,138.164 129.417 C 138.081 129.600,137.631 130.688,137.163 131.833 C 136.696 132.979,136.245 134.067,136.162 134.250 C 135.923 134.780,134.500 138.365,134.500 138.439 C 134.500 138.476,136.119 138.486,138.098 138.462 L 141.697 138.417 142.109 137.417 C 142.336 136.867,142.669 136.093,142.850 135.697 C 143.031 135.302,143.782 133.577,144.518 131.864 C 145.255 130.151,145.958 128.525,146.081 128.250 C 146.446 127.433,147.440 125.126,147.687 124.524 C 149.232 120.760,149.487 120.540,150.286 122.284 C 151.281 124.455,151.833 125.690,151.833 125.747 C 151.833 125.778,152.102 126.392,152.431 127.110 C 152.760 127.829,153.210 128.812,153.431 129.296 C 153.652 129.780,153.833 130.217,153.833 130.268 C 153.833 130.318,154.096 130.905,154.417 131.572 C 154.737 132.239,155.000 132.828,155.000 132.881 C 155.000 132.934,155.231 133.488,155.513 134.113 C 156.082 135.372,156.254 135.754,156.985 137.384 L 157.486 138.500 160.993 138.500 C 162.922 138.500,164.500 138.458,164.500 138.407 C 164.500 138.356,164.229 137.662,163.897 136.866 C 163.565 136.069,162.964 134.592,162.561 133.583 C 162.158 132.575,161.759 131.600,161.675 131.417 C 161.591 131.233,161.027 129.883,160.421 128.417 C 159.815 126.950,159.251 125.600,159.169 125.417 C 158.743 124.469,158.123 123.053,157.763 122.204 C 156.905 120.184,155.810 118.129,155.373 117.721 C 153.832 116.280,149.875 115.608,146.833 116.269 M208.620 116.254 C 207.336 116.534,206.737 116.776,205.795 117.396 C 204.932 117.963,204.579 118.587,202.668 122.917 C 202.587 123.100,202.291 123.761,202.011 124.387 C 201.730 125.012,201.500 125.560,201.500 125.606 C 201.500 125.651,201.313 126.098,201.084 126.598 C 200.855 127.098,200.475 127.975,200.240 128.546 C 199.802 129.608,199.426 130.493,199.161 131.083 C 199.079 131.267,198.743 132.092,198.414 132.917 C 198.086 133.742,197.749 134.567,197.667 134.750 C 197.152 135.893,196.333 138.043,196.333 138.252 C 196.333 138.464,196.845 138.500,199.829 138.500 L 203.325 138.500 203.672 137.708 C 204.192 136.521,204.269 136.346,204.823 135.113 C 205.104 134.488,205.333 133.940,205.333 133.894 C 205.333 133.849,205.529 133.386,205.768 132.864 C 206.007 132.343,206.800 130.529,207.530 128.833 C 208.260 127.138,208.958 125.525,209.081 125.250 C 209.204 124.975,209.578 124.112,209.914 123.333 C 210.808 121.256,210.861 121.167,211.200 121.167 C 211.459 121.167,212.500 122.947,212.500 123.390 C 212.500 123.468,212.855 124.275,213.869 126.500 C 214.057 126.912,214.356 127.587,214.534 128.000 C 214.952 128.969,215.175 129.467,215.902 131.057 C 216.231 131.775,216.500 132.389,216.500 132.420 C 216.500 132.451,216.730 132.988,217.011 133.613 C 217.291 134.239,217.587 134.900,217.668 135.083 C 218.155 136.188,218.585 137.172,218.851 137.792 L 219.155 138.500 222.672 138.500 L 226.189 138.500 226.075 138.125 C 226.013 137.919,225.699 137.112,225.377 136.333 C 225.055 135.554,224.461 134.092,224.057 133.083 C 223.653 132.075,223.255 131.100,223.174 130.917 C 223.093 130.733,222.186 128.596,221.159 126.167 C 217.393 117.255,217.302 117.130,214.000 116.318 C 212.548 115.962,210.093 115.932,208.620 116.254 M227.301 122.125 C 227.217 130.214,227.478 132.230,228.792 133.634 C 228.906 133.757,229.000 133.915,229.000 133.986 C 229.000 134.255,230.666 135.837,231.522 136.381 C 234.366 138.189,236.321 138.495,245.042 138.498 L 251.833 138.500 251.833 136.009 L 251.833 133.517 245.125 133.465 C 237.643 133.406,237.697 133.414,236.234 132.130 C 234.142 130.293,233.949 129.475,233.872 122.125 L 233.808 116.000 230.586 116.000 L 227.365 116.000 227.301 122.125 M280.333 116.270 C 273.221 118.127,273.000 126.739,280.000 129.262 C 280.620 129.485,281.800 129.547,286.800 129.620 L 292.849 129.708 293.341 130.200 C 294.393 131.252,293.763 133.159,292.250 133.506 C 291.883 133.590,288.152 133.661,283.958 133.663 L 276.333 133.667 276.333 136.083 L 276.333 138.500 285.268 138.500 C 292.738 138.500,294.370 138.458,295.226 138.245 C 301.797 136.605,302.762 128.295,296.710 125.451 L 295.583 124.921 289.500 124.836 C 283.848 124.756,283.369 124.726,282.750 124.417 C 281.576 123.830,281.416 122.262,282.441 121.382 L 282.885 121.000 291.109 121.000 L 299.333 121.000 299.333 118.500 L 299.333 116.000 290.292 116.015 C 283.008 116.027,281.072 116.077,280.333 116.270 M301.833 127.250 L 301.833 138.500 305.083 138.500 L 308.333 138.500 308.333 127.250 L 308.333 116.000 305.083 116.000 L 301.833 116.000 301.833 127.250 M316.333 116.270 C 309.221 118.127,309.000 126.739,316.000 129.262 C 316.620 129.485,317.800 129.547,322.800 129.620 L 328.849 129.708 329.341 130.200 C 330.393 131.252,329.763 133.159,328.250 133.506 C 327.883 133.590,324.152 133.661,319.958 133.663 L 312.333 133.667 312.333 136.083 L 312.333 138.500 321.268 138.500 C 328.738 138.500,330.370 138.458,331.226 138.245 C 337.797 136.605,338.762 128.295,332.710 125.451 L 331.583 124.921 325.500 124.836 C 319.848 124.756,319.369 124.726,318.750 124.417 C 317.576 123.830,317.416 122.262,318.441 121.382 L 318.885 121.000 327.109 121.000 L 335.333 121.000 335.333 118.500 L 335.333 116.000 326.292 116.015 C 319.008 116.027,317.072 116.077,316.333 116.270 M246.376 116.779 C 246.582 117.023,246.862 117.345,247.000 117.494 C 247.137 117.642,247.550 118.136,247.916 118.590 C 248.845 119.742,249.210 120.181,249.500 120.494 C 249.637 120.642,250.048 121.136,250.413 121.590 C 250.778 122.045,251.153 122.501,251.247 122.604 C 251.340 122.707,251.688 123.119,252.020 123.521 C 252.351 123.922,253.758 125.618,255.145 127.290 L 257.667 130.329 257.667 134.415 L 257.667 138.500 261.000 138.500 L 264.333 138.500 264.333 134.411 L 264.333 130.321 268.114 125.786 C 270.193 123.291,272.162 120.945,272.489 120.573 C 273.475 119.449,274.057 118.760,274.583 118.093 C 274.858 117.745,275.286 117.225,275.534 116.938 L 275.986 116.417 272.140 116.372 C 267.771 116.321,268.358 116.146,266.917 117.927 C 265.957 119.112,265.616 119.522,265.333 119.827 C 265.196 119.976,264.783 120.469,264.417 120.923 C 262.370 123.462,261.295 124.667,261.075 124.667 C 260.893 124.667,259.778 123.435,257.917 121.180 C 257.733 120.958,257.471 120.656,257.333 120.508 C 257.196 120.361,256.344 119.362,255.440 118.287 L 253.796 116.333 249.899 116.333 L 246.002 116.333 246.376 116.779 " stroke="none" fill="#fcfcfc" fill-rule="evenodd"></path><path id="path1" d="M87.080 44.169 C 86.732 44.446,86.178 44.835,85.849 45.035 C 85.519 45.235,85.212 45.441,85.167 45.492 C 85.121 45.543,84.746 45.809,84.333 46.083 C 83.921 46.358,83.546 46.629,83.500 46.686 C 83.319 46.910,78.803 50.000,78.656 50.000 C 78.570 50.000,78.500 50.064,78.500 50.142 C 78.500 50.221,77.731 50.800,76.792 51.431 C 75.852 52.061,75.058 52.635,75.028 52.705 C 74.997 52.776,74.870 52.833,74.744 52.833 C 74.619 52.833,74.457 52.927,74.383 53.042 C 74.310 53.156,74.129 53.325,73.981 53.417 C 73.289 53.844,71.014 55.437,70.417 55.911 C 69.587 56.570,65.801 59.173,65.245 59.467 C 65.018 59.587,64.833 59.756,64.833 59.842 C 64.833 59.929,64.753 60.000,64.655 60.000 C 64.557 60.000,64.378 60.094,64.259 60.208 C 64.139 60.323,63.872 60.529,63.666 60.667 C 63.010 61.104,61.091 62.477,60.882 62.658 C 60.771 62.755,60.638 62.833,60.585 62.833 C 60.532 62.833,59.948 63.235,59.286 63.725 C 57.926 64.733,56.961 65.421,55.750 66.245 C 55.292 66.557,54.279 67.268,53.500 67.825 C 52.721 68.382,51.933 68.903,51.750 68.983 C 50.673 69.453,50.675 69.538,51.838 73.045 C 52.422 74.808,52.923 76.281,52.950 76.319 C 53.001 76.390,54.230 75.586,55.750 74.490 C 56.208 74.159,57.596 73.175,58.833 72.304 C 60.071 71.433,63.746 68.844,67.000 66.551 C 80.388 57.119,87.760 51.954,87.923 51.891 C 88.018 51.855,88.693 52.261,89.423 52.794 C 90.153 53.327,91.800 54.517,93.083 55.439 C 101.649 61.593,104.107 63.359,105.583 64.415 C 109.672 67.340,119.235 74.213,120.740 75.308 C 121.919 76.167,122.429 76.452,122.510 76.299 C 122.694 75.950,124.691 69.967,124.635 69.932 C 124.607 69.914,124.350 69.716,124.065 69.492 C 123.780 69.267,123.378 68.971,123.173 68.833 C 122.967 68.696,121.550 67.683,120.023 66.583 C 118.497 65.483,116.400 63.983,115.364 63.250 C 114.328 62.517,112.528 61.223,111.365 60.376 C 108.131 58.020,107.937 57.881,106.375 56.815 C 105.802 56.423,105.333 56.043,105.333 55.968 C 105.333 55.894,105.254 55.833,105.157 55.833 C 105.060 55.833,104.401 55.402,103.694 54.875 C 102.986 54.348,102.285 53.842,102.135 53.750 C 101.985 53.658,101.162 53.079,100.306 52.462 C 99.450 51.845,98.614 51.245,98.447 51.128 C 98.281 51.012,97.456 50.413,96.614 49.798 C 94.597 48.324,93.719 47.692,91.917 46.416 C 91.092 45.832,90.298 45.237,90.153 45.094 C 90.007 44.951,89.834 44.833,89.768 44.833 C 89.701 44.833,89.303 44.571,88.883 44.250 C 87.954 43.541,87.876 43.537,87.080 44.169 M86.538 91.677 C 84.205 92.862,83.666 96.104,85.477 98.057 C 88.354 101.158,93.007 97.199,91.042 93.323 C 90.149 91.562,88.179 90.843,86.538 91.677 M65.767 93.173 C 64.686 93.497,63.674 94.984,63.674 96.250 C 63.674 99.299,67.293 100.484,68.952 97.977 C 70.532 95.589,68.407 92.383,65.767 93.173 M110.349 93.211 C 109.268 93.766,108.873 95.460,109.594 96.446 C 110.806 98.104,113.100 97.538,113.292 95.533 C 113.464 93.752,111.820 92.455,110.349 93.211 M94.242 95.274 C 93.020 96.593,94.711 98.577,96.038 97.381 C 96.197 97.238,96.373 96.877,96.429 96.578 C 96.692 95.174,95.174 94.269,94.242 95.274 M106.417 96.253 C 104.673 97.193,104.092 99.580,105.240 101.086 C 107.597 104.176,111.757 101.006,109.981 97.472 C 109.355 96.227,107.587 95.621,106.417 96.253 M80.169 96.792 C 78.340 98.621,80.561 101.716,82.678 100.289 C 84.347 99.164,83.641 96.440,81.621 96.212 C 80.879 96.128,80.801 96.160,80.169 96.792 M97.491 97.912 C 96.389 98.511,96.175 100.385,97.099 101.350 C 98.163 102.460,99.675 102.290,100.342 100.984 C 101.340 99.026,99.362 96.894,97.491 97.912 M111.714 98.254 C 110.795 98.640,110.648 100.032,111.459 100.670 C 112.217 101.266,113.040 101.011,113.438 100.057 C 113.935 98.869,112.878 97.764,111.714 98.254 M91.761 98.991 C 91.102 99.426,90.846 99.937,90.840 100.833 C 90.826 102.816,92.962 103.846,94.304 102.504 C 96.050 100.758,93.798 97.648,91.761 98.991 M70.667 99.784 C 69.646 100.158,69.296 101.593,70.052 102.304 C 71.102 103.290,72.629 102.063,72.131 100.635 C 71.999 100.256,71.216 99.614,70.967 99.680 C 70.939 99.687,70.804 99.734,70.667 99.784 M64.698 100.559 C 64.076 100.904,63.669 101.671,63.669 102.500 C 63.669 104.784,66.473 105.624,67.529 103.656 C 68.523 101.803,66.482 99.569,64.698 100.559 M76.365 100.838 C 74.893 101.735,75.145 104.090,76.787 104.776 C 78.057 105.307,79.320 104.485,79.459 103.035 C 79.642 101.135,77.903 99.900,76.365 100.838 M87.977 101.319 C 87.665 101.571,87.583 101.799,87.583 102.417 C 87.583 103.736,88.856 104.326,89.758 103.424 C 90.992 102.189,89.330 100.223,87.977 101.319 M82.333 101.432 C 78.892 102.923,79.498 108.610,83.136 108.959 C 86.439 109.277,88.424 105.085,86.200 102.487 C 85.166 101.279,83.646 100.864,82.333 101.432 M101.475 102.993 C 98.264 104.739,98.868 109.967,102.335 110.433 C 106.195 110.952,108.015 105.442,104.724 103.199 C 103.860 102.610,102.355 102.515,101.475 102.993 M95.909 103.409 C 95.183 104.135,95.394 105.444,96.296 105.818 C 97.729 106.412,98.788 104.311,97.548 103.335 C 96.978 102.887,96.406 102.912,95.909 103.409 M108.683 104.211 C 107.065 105.042,107.328 107.754,109.081 108.333 C 110.374 108.759,111.667 107.766,111.667 106.345 C 111.667 104.627,110.081 103.492,108.683 104.211 M68.721 104.732 C 67.832 105.497,68.199 106.971,69.349 107.251 C 70.045 107.421,70.833 106.656,70.833 105.811 C 70.833 104.530,69.656 103.929,68.721 104.732 M73.417 104.577 C 72.572 104.880,71.768 105.793,71.499 106.754 C 70.696 109.622,73.823 111.983,75.950 110.115 C 78.515 107.863,76.505 103.467,73.417 104.577 M90.402 104.571 C 87.465 105.849,87.475 110.485,90.417 111.850 C 92.864 112.986,95.627 110.540,95.255 107.567 C 94.955 105.167,92.505 103.655,90.402 104.571 M64.500 105.453 C 63.663 105.755,63.296 106.789,63.729 107.626 C 64.392 108.908,66.167 108.334,66.167 106.838 C 66.167 105.960,65.236 105.187,64.500 105.453 M66.335 109.053 C 64.853 109.524,63.667 111.601,63.898 113.317 C 64.243 115.872,66.719 117.412,68.787 116.357 C 72.912 114.253,70.700 107.663,66.335 109.053 M96.500 109.854 C 94.501 110.651,94.175 113.448,95.905 114.967 C 98.241 117.018,101.378 113.983,99.827 111.172 C 99.147 109.940,97.711 109.371,96.500 109.854 M105.535 110.251 C 104.379 110.753,104.052 112.609,104.934 113.657 C 106.217 115.181,108.501 114.356,108.499 112.369 C 108.498 110.622,107.055 109.591,105.535 110.251 M110.242 110.441 C 109.391 111.360,109.952 112.833,111.153 112.833 C 112.009 112.833,112.417 112.365,112.417 111.384 C 112.417 110.077,111.106 109.509,110.242 110.441 M79.172 110.519 C 76.138 111.730,75.967 116.517,78.910 117.853 C 82.400 119.439,85.486 114.577,82.921 111.534 C 82.033 110.481,80.385 110.035,79.172 110.519 M86.559 111.000 C 85.639 111.368,85.369 112.718,86.076 113.424 C 86.665 114.014,87.357 113.968,87.918 113.301 C 88.839 112.207,87.827 110.494,86.559 111.000 M91.387 114.042 C 90.896 114.588,90.801 114.980,91.009 115.610 C 91.509 117.127,93.500 116.645,93.500 115.007 C 93.500 113.830,92.138 113.208,91.387 114.042 M108.947 113.908 C 106.399 114.817,106.296 118.765,108.791 119.868 C 110.670 120.700,112.667 119.149,112.667 116.857 C 112.667 114.657,110.861 113.226,108.947 113.908 M86.904 115.307 C 84.054 116.639,84.914 121.333,88.008 121.333 C 90.213 121.333,91.617 118.677,90.532 116.558 C 89.859 115.247,88.232 114.686,86.904 115.307 M63.991 117.593 C 63.460 118.158,63.441 119.182,63.953 119.694 C 64.781 120.522,66.167 119.856,66.167 118.630 C 66.167 117.341,64.827 116.703,63.991 117.593 " stroke="none" fill="#04d9fb" fill-rule="evenodd"></path><path id="path2" d="M77.500 78.094 C 71.313 82.453,65.688 86.418,65.000 86.905 C 57.298 92.362,53.975 94.667,53.810 94.667 C 53.659 94.667,52.648 95.350,51.691 96.100 C 51.658 96.126,51.793 96.657,51.992 97.282 C 52.190 97.906,52.840 99.954,53.437 101.833 C 54.033 103.712,54.586 105.372,54.666 105.521 C 54.745 105.670,54.862 106.065,54.924 106.398 C 54.987 106.731,55.104 107.045,55.186 107.095 C 55.267 107.145,55.333 107.339,55.333 107.526 C 55.333 107.713,55.437 108.103,55.565 108.391 C 55.692 108.680,56.038 109.704,56.334 110.667 C 57.085 113.108,58.327 116.969,58.587 117.667 C 58.819 118.292,59.767 121.228,61.170 125.667 C 61.648 127.179,62.136 128.679,62.254 129.000 C 62.373 129.321,62.821 130.708,63.250 132.083 C 63.679 133.458,64.093 134.705,64.170 134.854 C 64.247 135.004,64.362 135.398,64.424 135.731 C 64.487 136.064,64.598 136.374,64.671 136.419 C 64.744 136.465,64.855 136.801,64.917 137.167 C 64.978 137.532,65.097 137.874,65.181 137.926 C 65.265 137.977,65.333 138.165,65.333 138.343 C 65.333 138.521,65.352 138.669,65.375 138.672 C 65.398 138.674,75.695 138.722,88.256 138.779 L 111.096 138.881 111.286 138.315 C 111.390 138.004,112.423 134.975,113.582 131.583 C 116.391 123.360,116.701 122.445,116.745 122.250 C 116.766 122.158,116.825 121.971,116.877 121.833 C 117.421 120.388,119.350 114.783,120.260 112.000 C 120.484 111.313,120.731 110.600,120.808 110.417 C 120.884 110.233,121.115 109.558,121.320 108.917 C 121.525 108.275,121.758 107.600,121.837 107.417 C 121.917 107.233,122.256 106.221,122.591 105.167 C 122.927 104.112,123.265 103.100,123.343 102.917 C 123.421 102.733,123.830 101.533,124.253 100.250 C 124.675 98.967,125.065 97.804,125.119 97.667 C 125.626 96.375,125.606 96.321,124.293 95.417 C 123.628 94.958,122.971 94.556,122.833 94.523 C 122.696 94.490,121.008 93.320,119.083 91.923 C 117.158 90.526,112.883 87.448,109.583 85.083 C 106.283 82.718,102.421 79.944,101.000 78.919 C 97.065 76.078,88.809 70.167,88.778 70.167 C 88.763 70.167,83.688 73.734,77.500 78.094 M89.221 91.489 C 90.569 92.002,91.562 93.609,91.550 95.259 C 91.518 99.573,86.002 100.719,84.571 96.709 C 83.483 93.659,86.379 90.408,89.221 91.489 M67.800 93.234 C 70.265 94.517,69.943 98.571,67.314 99.359 C 64.712 100.138,62.622 96.764,64.215 94.357 C 64.999 93.171,66.672 92.647,67.800 93.234 M112.575 93.515 C 113.411 94.249,113.635 95.098,113.256 96.092 C 112.361 98.434,109.250 97.715,109.250 95.167 C 109.250 93.202,111.146 92.261,112.575 93.515 M96.155 95.272 C 97.273 96.694,95.504 98.685,94.242 97.424 C 93.696 96.878,93.673 95.776,94.196 95.219 C 94.721 94.659,95.693 94.686,96.155 95.272 M108.921 96.292 C 110.281 97.025,110.881 99.061,110.187 100.590 C 109.211 102.739,106.483 103.060,105.234 101.173 C 103.384 98.377,106.105 94.775,108.921 96.292 M82.635 96.504 C 83.347 96.938,83.728 97.838,83.617 98.823 C 83.354 101.158,80.113 101.276,79.493 98.973 C 78.959 96.991,80.915 95.455,82.635 96.504 M99.624 97.928 C 100.617 98.579,100.959 100.101,100.340 101.117 C 99.410 102.643,97.395 102.436,96.644 100.737 C 95.750 98.717,97.833 96.754,99.624 97.928 M113.179 98.487 C 114.328 99.636,113.112 101.480,111.591 100.896 C 110.348 100.420,110.899 98.000,112.250 98.000 C 112.517 98.000,112.886 98.193,113.179 98.487 M93.968 99.004 C 94.986 99.625,95.303 101.168,94.620 102.181 C 93.216 104.265,90.164 102.652,90.830 100.179 C 91.199 98.810,92.717 98.241,93.968 99.004 M71.721 100.007 C 72.280 100.447,72.447 101.297,72.104 101.960 C 71.280 103.553,68.981 102.322,69.671 100.657 C 70.076 99.678,70.951 99.401,71.721 100.007 M66.914 100.695 C 68.197 101.704,68.055 103.915,66.662 104.620 C 64.460 105.734,62.459 102.353,64.369 100.746 C 65.023 100.195,66.248 100.171,66.914 100.695 M78.519 100.788 C 79.206 101.193,79.734 102.341,79.589 103.113 C 79.039 106.043,75.047 105.326,75.381 102.357 C 75.552 100.838,77.206 100.012,78.519 100.788 M89.758 101.242 C 90.336 101.821,90.333 102.952,89.751 103.499 C 88.375 104.791,86.649 102.659,87.987 101.321 C 88.588 100.719,89.207 100.692,89.758 101.242 M85.538 101.759 C 88.554 103.849,87.100 109.054,83.500 109.054 C 80.390 109.054,78.854 105.105,80.914 102.405 C 81.927 101.077,84.114 100.771,85.538 101.759 M104.500 103.006 C 106.644 104.089,107.178 107.259,105.539 109.174 C 103.227 111.875,99.329 110.277,99.335 106.630 C 99.340 103.634,102.019 101.754,104.500 103.006 M97.758 103.409 C 98.315 103.966,98.306 104.809,97.735 105.487 C 96.896 106.484,95.424 105.873,95.424 104.527 C 95.424 103.166,96.837 102.489,97.758 103.409 M110.794 104.312 C 110.981 104.412,111.299 104.836,111.501 105.253 C 112.514 107.345,110.337 109.432,108.557 108.075 C 106.200 106.277,108.195 102.921,110.794 104.312 M92.750 104.351 C 93.605 104.585,94.911 105.904,95.155 106.780 C 96.432 111.381,90.738 114.345,88.625 110.177 C 87.054 107.080,89.597 103.488,92.750 104.351 M70.485 104.689 C 71.577 105.861,70.442 107.764,69.006 107.169 C 68.096 106.792,67.908 105.150,68.710 104.588 C 69.240 104.217,70.091 104.266,70.485 104.689 M75.947 104.939 C 78.066 106.653,77.309 110.281,74.731 110.764 C 71.753 111.323,70.129 107.328,72.443 105.135 C 73.455 104.176,74.904 104.095,75.947 104.939 M65.758 105.742 C 66.879 106.864,65.687 108.950,64.328 108.247 C 63.358 107.746,63.199 106.609,63.987 105.821 C 64.588 105.219,65.207 105.192,65.758 105.742 M68.986 109.159 C 72.416 110.909,71.231 116.691,67.442 116.690 C 63.477 116.690,62.455 110.978,66.083 109.095 C 66.787 108.730,68.205 108.761,68.986 109.159 M98.555 109.894 C 99.702 110.373,100.473 111.889,100.258 113.243 C 99.856 115.773,96.816 116.521,95.322 114.458 C 93.549 112.011,95.849 108.764,98.555 109.894 M112.125 110.439 C 113.315 111.749,111.563 113.786,110.274 112.591 C 109.683 112.043,109.648 110.893,110.208 110.384 C 110.923 109.733,111.498 109.750,112.125 110.439 M107.742 110.515 C 108.901 111.533,108.914 113.207,107.771 114.079 C 106.725 114.876,105.183 114.489,104.612 113.286 C 103.558 111.067,105.955 108.946,107.742 110.515 M82.207 110.807 C 86.131 113.232,82.851 119.819,78.716 117.817 C 75.764 116.388,76.330 110.930,79.485 110.405 C 79.814 110.351,80.156 110.288,80.246 110.266 C 80.603 110.177,81.659 110.468,82.207 110.807 M87.789 111.161 C 88.478 111.803,88.478 113.096,87.790 113.579 C 86.653 114.375,85.230 113.240,85.675 111.892 C 86.009 110.879,87.087 110.507,87.789 111.161 M92.949 113.826 C 94.013 114.475,93.753 116.212,92.540 116.560 C 91.025 116.995,90.180 114.662,91.551 113.826 C 91.844 113.647,92.158 113.501,92.250 113.501 C 92.342 113.501,92.656 113.647,92.949 113.826 M111.116 114.016 C 112.119 114.501,112.745 115.583,112.744 116.831 C 112.743 119.617,109.748 121.187,107.907 119.367 C 105.346 116.833,107.953 112.485,111.116 114.016 M89.300 115.234 C 91.819 116.545,91.402 120.534,88.659 121.355 C 86.541 121.990,84.546 119.590,85.242 117.245 C 85.776 115.449,87.792 114.450,89.300 115.234 M66.109 117.954 C 66.535 118.973,65.865 120.167,64.867 120.167 C 64.267 120.167,63.499 119.305,63.504 118.638 C 63.514 117.069,65.520 116.542,66.109 117.954 " stroke="none" fill="#0c06a3" fill-rule="evenodd"></path><path id="path3" d="M83.583 54.885 C 81.200 56.563,75.800 60.365,71.583 63.333 C 62.769 69.538,58.840 72.307,56.833 73.727 C 55.208 74.877,53.355 76.125,51.865 77.074 C 50.689 77.822,50.735 77.709,51.145 78.869 C 51.635 80.258,52.790 83.849,52.984 84.588 C 53.380 86.102,53.160 86.178,57.676 82.963 C 61.235 80.429,66.141 76.961,68.750 75.135 C 69.208 74.815,73.807 71.578,78.970 67.943 C 84.133 64.308,88.411 61.333,88.478 61.333 C 88.545 61.333,89.084 61.685,89.675 62.116 C 91.036 63.106,97.619 67.831,109.000 75.988 C 121.417 84.886,122.192 85.471,122.023 85.808 C 121.464 86.917,119.830 92.212,119.988 92.402 C 120.182 92.636,122.604 94.333,122.744 94.333 C 122.867 94.333,123.277 93.307,123.416 92.649 C 123.481 92.338,123.635 91.858,123.758 91.583 C 124.468 89.986,125.162 87.413,124.926 87.250 C 123.271 86.107,122.333 85.410,122.333 85.325 C 122.333 85.166,122.705 84.027,123.734 81.040 C 124.247 79.549,124.666 78.237,124.665 78.123 C 124.663 77.919,123.040 76.695,122.464 76.464 C 122.301 76.398,120.573 75.192,118.625 73.785 C 116.677 72.377,113.771 70.286,112.167 69.138 C 110.563 67.990,107.600 65.864,105.583 64.414 C 103.567 62.964,100.192 60.541,98.083 59.028 C 92.110 54.744,90.847 53.835,89.429 52.799 C 88.702 52.268,88.065 51.833,88.012 51.834 C 87.960 51.834,85.967 53.207,83.583 54.885 M144.333 77.823 C 143.462 77.981,142.450 78.227,142.083 78.371 C 140.612 78.946,140.333 79.078,140.333 79.203 C 140.333 79.275,140.234 79.333,140.113 79.333 C 139.298 79.333,137.308 82.026,136.725 83.917 C 136.261 85.422,136.252 105.297,136.714 107.033 C 137.526 110.082,138.971 111.637,142.083 112.810 C 143.870 113.484,148.174 113.695,150.875 113.241 C 156.440 112.306,158.824 109.400,158.831 103.542 L 158.833 101.500 154.442 101.500 L 150.050 101.500 149.956 103.730 C 149.836 106.608,149.494 107.324,148.127 107.569 C 147.195 107.736,146.250 107.419,145.800 106.787 L 145.417 106.250 145.366 96.083 C 145.301 83.181,145.225 83.660,147.353 83.544 C 149.389 83.434,149.813 84.048,149.825 87.125 L 149.833 89.167 154.292 89.167 L 158.750 89.167 158.724 87.292 C 158.642 81.261,156.378 78.621,150.543 77.754 C 148.389 77.434,146.358 77.456,144.333 77.823 M171.167 77.762 C 166.624 78.460,163.898 80.557,162.732 84.253 C 162.254 85.765,162.247 105.151,162.723 106.830 C 164.030 111.441,167.473 113.505,173.846 113.498 C 179.574 113.492,183.398 111.778,184.936 108.528 C 185.936 106.413,185.917 106.674,185.917 95.500 L 185.917 85.250 185.451 83.917 C 183.730 78.994,178.323 76.664,171.167 77.762 M188.063 78.456 C 188.120 78.709,188.283 79.517,188.424 80.250 C 188.566 80.983,188.784 82.108,188.909 82.750 C 189.034 83.392,189.259 84.554,189.409 85.333 C 189.559 86.112,189.784 87.275,189.909 87.917 C 190.034 88.558,190.255 89.702,190.401 90.458 C 191.073 93.938,191.213 94.658,191.433 95.750 C 191.563 96.392,191.781 97.517,191.919 98.250 C 192.057 98.983,192.281 100.146,192.417 100.833 C 192.553 101.521,192.776 102.683,192.914 103.417 C 193.052 104.150,193.271 105.275,193.400 105.917 C 193.743 107.617,194.118 109.563,194.396 111.083 C 194.531 111.817,194.692 112.548,194.755 112.708 C 194.945 113.193,206.333 113.154,206.333 112.669 C 206.333 112.487,206.553 111.231,206.822 109.878 C 207.091 108.524,207.470 106.554,207.664 105.500 C 207.984 103.764,208.169 102.803,208.675 100.250 C 208.922 99.003,209.271 97.143,209.661 95.000 C 209.853 93.946,210.080 92.783,210.167 92.417 C 210.253 92.050,210.478 90.888,210.667 89.833 C 210.856 88.779,211.080 87.613,211.165 87.243 C 211.251 86.872,211.436 85.897,211.576 85.076 C 211.717 84.255,211.911 83.208,212.007 82.750 C 212.289 81.408,212.828 78.435,212.831 78.208 C 212.833 78.047,211.808 78.000,208.258 78.000 L 203.682 78.000 203.596 78.542 C 203.549 78.840,203.431 79.908,203.333 80.917 C 203.234 81.925,203.048 83.725,202.918 84.917 C 202.788 86.108,202.568 88.133,202.430 89.417 C 202.184 91.692,201.895 94.189,201.406 98.250 C 201.274 99.350,201.077 101.281,200.969 102.542 C 200.734 105.274,200.588 105.434,200.441 103.125 C 200.381 102.185,200.258 100.854,200.168 100.167 C 199.971 98.663,199.567 95.449,199.330 93.500 C 199.235 92.721,198.763 88.933,198.280 85.083 L 197.402 78.083 192.681 78.039 L 187.960 77.995 188.063 78.456 M215.833 95.500 L 215.833 113.000 220.167 113.000 L 224.500 113.000 224.500 95.500 L 224.500 78.000 220.167 78.000 L 215.833 78.000 215.833 95.500 M229.833 95.500 L 229.833 113.000 236.335 113.000 C 248.720 113.000,251.681 111.567,252.853 105.008 C 253.208 103.017,252.955 85.204,252.556 84.152 C 250.633 79.080,247.685 78.000,235.764 78.000 L 229.833 78.000 229.833 95.500 M175.597 83.768 C 175.908 83.915,176.331 84.309,176.539 84.643 L 176.917 85.250 176.917 95.500 C 176.917 106.883,176.968 106.347,175.803 107.215 C 175.151 107.701,173.191 107.708,172.545 107.226 C 171.364 106.345,171.417 106.898,171.417 95.500 L 171.417 85.250 171.793 84.645 C 172.466 83.562,174.282 83.143,175.597 83.768 M242.411 84.088 C 244.021 84.850,243.910 84.066,243.964 95.046 C 244.024 107.461,244.112 107.166,240.267 107.437 L 238.667 107.549 238.667 95.608 L 238.667 83.667 240.094 83.667 C 241.274 83.667,241.675 83.740,242.411 84.088 M52.746 86.224 C 52.468 86.421,52.040 86.742,51.794 86.935 L 51.347 87.287 52.065 89.435 C 52.461 90.617,52.989 92.240,53.240 93.042 C 53.764 94.717,53.773 94.720,55.011 93.842 L 55.939 93.184 54.756 89.562 C 53.482 85.663,53.497 85.687,52.746 86.224 " stroke="none" fill="#0464fb" fill-rule="evenodd"></path><path id="path4" d="M78.833 68.023 C 73.654 71.685,69.079 74.913,68.667 75.196 C 66.943 76.378,54.515 85.182,53.907 85.651 C 53.566 85.916,53.569 85.932,54.749 89.542 C 55.587 92.107,55.882 93.221,55.758 93.354 C 55.662 93.456,56.123 93.159,56.783 92.694 C 59.671 90.654,65.556 86.510,67.083 85.439 C 68.000 84.796,73.175 81.150,78.583 77.337 C 83.992 73.523,88.504 70.349,88.610 70.284 C 88.784 70.177,91.881 72.336,101.000 78.919 C 102.421 79.944,106.283 82.719,109.583 85.084 C 112.883 87.449,116.671 90.170,118.000 91.131 C 119.329 92.092,120.279 92.724,120.111 92.536 C 119.829 92.219,121.169 87.503,122.023 85.808 C 122.192 85.471,121.417 84.886,109.000 75.988 C 97.619 67.831,91.036 63.106,89.675 62.116 C 89.084 61.685,88.521 61.340,88.425 61.349 C 88.329 61.357,84.012 64.360,78.833 68.023 M158.723 87.833 C 158.723 88.521,158.752 88.802,158.788 88.458 C 158.824 88.115,158.824 87.552,158.788 87.208 C 158.752 86.865,158.723 87.146,158.723 87.833 M121.167 93.379 C 121.167 93.477,122.620 94.500,122.761 94.500 C 122.828 94.500,122.591 94.290,122.233 94.033 C 121.436 93.459,121.167 93.294,121.167 93.379 M87.708 121.448 C 87.869 121.490,88.131 121.490,88.292 121.448 C 88.452 121.406,88.321 121.372,88.000 121.372 C 87.679 121.372,87.548 121.406,87.708 121.448 " stroke="none" fill="#0426d4" fill-rule="evenodd"></path></g></svg>