<?xml version="1.0" standalone="no"?>
<!DOCTYPE svg PUBLIC "-//W3C//DTD SVG 20010904//EN"
 "http://www.w3.org/TR/2001/REC-SVG-20010904/DTD/svg10.dtd">
<svg version="1.0" xmlns="http://www.w3.org/2000/svg"
 width="4000.000000pt" height="2000.000000pt" viewBox="0 0 4000.000000 2000.000000"
 preserveAspectRatio="xMidYMid meet">
<metadata>
Created by potrace 1.15, written by Peter Selinger 2001-2017
</metadata>
<g transform="translate(0.000000,2000.000000) scale(0.100000,-0.100000)"
fill="#000000" stroke="none">
<path d="M8749 14787 c-24 -18 -75 -55 -114 -82 -38 -27 -90 -63 -115 -80 -25
-18 -238 -168 -475 -335 -939 -662 -1421 -1001 -2035 -1433 -250 -176 -508
-358 -572 -404 -64 -45 -126 -83 -137 -83 -12 0 -21 -4 -21 -10 0 -5 -14 -17
-31 -25 -16 -9 -38 -24 -48 -33 -31 -29 -65 -53 -88 -65 -13 -5 -23 -15 -23
-20 0 -16 40 -149 54 -182 8 -16 17 -48 21 -70 4 -22 13 -51 21 -65 7 -14 20
-50 28 -80 19 -68 55 -180 65 -200 5 -8 16 -50 26 -93 18 -75 20 -77 49 -78
24 -1 26 -3 8 -6 -12 -2 -20 -9 -17 -14 4 -5 -1 -9 -9 -9 -9 0 -16 -4 -16 -8
0 -4 -15 -16 -32 -27 -18 -10 -42 -27 -52 -37 -11 -10 -23 -18 -26 -18 -4 0
-17 -9 -30 -20 -13 -11 -29 -20 -37 -20 -17 0 -17 -21 2 -56 8 -16 20 -55 26
-86 6 -32 15 -58 19 -58 5 0 14 -24 20 -52 7 -29 18 -64 25 -78 7 -14 18 -50
25 -80 7 -30 16 -59 20 -65 5 -5 16 -37 25 -70 9 -33 20 -69 25 -80 5 -11 15
-40 21 -65 7 -25 16 -50 21 -57 6 -7 2 -14 -11 -18 -12 -3 -21 -10 -21 -14 0
-4 -16 -16 -35 -27 -19 -10 -35 -21 -35 -25 0 -3 -16 -14 -35 -25 -19 -10 -35
-22 -35 -26 0 -5 -7 -8 -15 -8 -19 0 -20 -42 -1 -83 8 -18 31 -86 51 -152 20
-66 40 -127 45 -137 5 -9 16 -45 25 -80 9 -34 20 -67 24 -73 5 -5 16 -41 26
-78 10 -37 22 -70 27 -73 4 -3 8 -13 8 -22 0 -20 65 -232 86 -278 8 -18 19
-56 26 -85 7 -30 15 -56 19 -59 4 -3 15 -34 24 -70 9 -36 23 -79 31 -97 8 -17
17 -46 20 -65 4 -18 10 -37 14 -43 4 -5 16 -39 25 -75 10 -36 22 -70 26 -75 4
-6 15 -42 25 -80 9 -39 20 -74 25 -80 4 -5 15 -39 24 -73 9 -35 20 -71 25 -80
13 -24 49 -136 68 -212 9 -36 19 -67 23 -70 4 -3 15 -34 24 -70 9 -36 22 -78
30 -95 7 -16 19 -50 25 -75 7 -25 15 -49 20 -55 4 -5 13 -35 20 -65 7 -30 16
-59 20 -65 4 -5 15 -39 24 -75 10 -36 23 -78 30 -95 8 -16 20 -55 27 -85 7
-30 16 -57 20 -60 5 -4 33 -92 44 -135 1 -5 7 -21 12 -35 6 -14 14 -41 18 -60
4 -19 11 -39 15 -45 4 -5 16 -39 25 -75 10 -36 22 -70 26 -75 4 -6 15 -42 25
-80 10 -39 23 -79 30 -90 6 -11 17 -44 23 -74 6 -30 15 -59 20 -65 4 -6 14
-33 21 -61 6 -27 18 -63 25 -80 8 -16 19 -52 26 -80 6 -27 15 -54 19 -60 4 -5
15 -39 25 -75 9 -36 20 -69 25 -75 4 -5 15 -39 25 -75 9 -36 21 -69 25 -75 4
-5 11 -25 15 -42 l6 -33 362 -2 c199 -2 1227 -4 2284 -6 l1922 -3 14 33 c8 18
20 57 27 86 8 28 17 52 22 52 4 0 7 3 6 8 -3 9 33 126 42 132 3 3 11 29 18 59
7 29 18 67 26 85 8 17 22 58 32 91 9 33 21 65 24 70 4 6 11 26 15 45 4 19 13
44 19 55 7 11 19 45 26 75 8 30 19 62 25 70 6 8 17 40 24 70 8 30 18 64 24 75
6 11 19 47 29 80 26 91 57 187 73 220 7 17 16 43 20 60 4 16 15 48 26 72 10
23 19 48 19 55 1 7 8 31 16 53 9 22 24 67 34 100 26 83 60 186 70 210 5 11 16
45 26 75 9 30 20 60 24 65 4 6 13 35 20 65 7 30 18 65 25 76 8 12 21 45 29 75
12 43 91 274 119 349 3 8 11 33 17 55 7 22 18 54 25 70 7 17 20 57 30 90 9 33
20 65 24 70 4 6 14 36 21 68 7 31 17 57 22 57 4 0 7 3 6 8 -3 9 30 120 42 143
5 9 23 61 40 115 18 55 40 118 50 140 10 23 22 59 25 80 4 22 13 48 19 59 7
11 18 43 26 70 7 28 18 59 25 70 7 11 18 45 25 75 7 30 18 66 25 80 7 14 21
54 31 90 10 36 21 67 24 70 4 3 12 28 20 55 7 28 17 55 21 60 4 6 7 12 8 15 0
6 4 21 28 89 18 53 18 54 -1 65 -11 6 -27 19 -37 28 -10 9 -32 24 -48 33 -17
8 -31 19 -31 23 0 5 -16 16 -35 25 -19 9 -35 20 -35 25 0 5 -16 16 -36 25 -28
14 -34 22 -29 35 4 9 19 51 32 92 14 41 31 89 39 105 7 17 20 55 28 86 8 31
19 65 25 75 10 18 36 97 67 199 8 28 21 62 29 77 22 38 19 55 -12 75 -25 15
-48 32 -108 78 -21 16 -74 51 -107 71 -30 18 -59 52 -49 58 5 3 11 18 14 33 5
26 47 153 66 198 16 36 30 80 36 113 4 17 11 32 16 32 5 0 9 7 9 16 0 17 30
114 40 129 3 6 15 39 25 75 10 36 22 69 27 74 12 14 10 56 -3 56 -6 0 -17 6
-24 13 -8 6 -30 23 -50 37 -21 14 -46 33 -56 42 -10 10 -40 28 -66 41 -27 13
-129 82 -228 153 -99 72 -259 187 -355 256 -96 68 -321 230 -500 358 -179 129
-530 380 -780 560 -250 179 -554 398 -675 485 -393 283 -486 350 -509 365 -23
16 -193 137 -334 240 -46 33 -85 60 -86 60 -2 0 -23 -15 -47 -33z m194 -3951
c67 -32 140 -108 175 -184 24 -52 27 -68 27 -172 0 -104 -3 -121 -27 -173 -36
-76 -117 -160 -187 -194 -47 -23 -70 -27 -141 -27 -73 -1 -93 3 -142 27 -73
36 -150 119 -179 195 -30 79 -37 201 -14 278 65 227 292 342 488 250z m-2151
-173 c172 -94 209 -350 72 -502 -60 -67 -111 -93 -195 -99 -56 -4 -75 -1 -120
20 -110 50 -170 143 -177 273 -3 65 0 91 18 140 29 79 116 167 187 189 67 22
152 13 215 -21z m4406 21 c86 -35 136 -115 137 -215 0 -56 -4 -73 -30 -115
-119 -192 -402 -81 -383 150 12 145 148 234 276 180z m-1633 -178 c66 -28 99
-117 70 -191 -30 -80 -118 -116 -183 -76 -52 33 -74 77 -69 139 4 61 28 99 78
124 41 22 59 22 104 4z m1310 -131 c60 -29 121 -97 145 -163 31 -81 25 -205
-13 -279 -107 -207 -358 -230 -486 -43 -40 59 -65 157 -56 225 15 127 104 240
215 276 42 14 152 5 195 -16z m-2636 -15 c48 -24 98 -83 111 -130 43 -153 -46
-290 -189 -290 -62 0 -89 10 -137 52 -99 88 -103 249 -7 340 15 15 39 31 53
37 43 17 127 13 169 -9z m1720 -157 c94 -58 131 -203 78 -304 -80 -150 -293
-140 -367 18 -18 38 -21 60 -18 118 5 90 37 143 112 180 64 33 128 29 195 -12z
m1337 -32 c40 -24 69 -95 61 -147 -22 -134 -188 -169 -248 -52 -10 21 -19 52
-19 69 0 45 34 110 67 131 37 23 101 22 139 -1z m-1960 -46 c91 -27 155 -118
155 -220 0 -124 -84 -215 -198 -215 -123 1 -213 97 -213 227 1 104 57 185 147
209 61 16 52 16 109 -1z m-2169 -122 c58 -38 75 -140 35 -205 -24 -38 -74 -68
-114 -68 -37 0 -90 34 -110 71 -71 133 67 281 189 202z m-521 -52 c133 -61
177 -249 82 -357 -148 -169 -413 -11 -359 214 31 126 163 195 277 143z m1172
-17 c98 -41 155 -154 132 -261 -28 -124 -137 -193 -252 -159 -93 27 -158 115
-158 214 0 162 139 265 278 206z m1129 -44 c65 -39 87 -110 59 -185 -59 -152
-267 -97 -253 66 9 107 111 170 194 119z m-478 -25 c103 -36 184 -122 222
-234 17 -51 21 -80 17 -156 -3 -83 -8 -101 -41 -168 -67 -136 -177 -207 -320
-207 -288 0 -447 356 -276 620 40 63 102 113 172 142 53 21 170 23 226 3z
m1944 -151 c109 -37 204 -164 229 -304 28 -163 -58 -342 -204 -421 -58 -31
-70 -34 -153 -34 -78 0 -97 4 -146 28 -159 78 -242 276 -194 462 58 222 262
339 468 269z m-668 -34 c62 -38 83 -131 46 -200 -51 -97 -187 -95 -232 3 -24
53 -23 81 1 134 34 76 118 105 185 63z m1300 -99 c78 -35 125 -114 125 -208
-1 -106 -57 -185 -149 -209 -137 -35 -261 70 -261 221 0 162 143 261 285 196z
m-4024 -34 c39 -26 69 -79 69 -122 0 -50 -40 -116 -83 -138 -126 -64 -246 113
-155 228 43 55 114 69 169 32z m2268 8 c140 -49 241 -205 241 -370 0 -117 -63
-257 -143 -318 -78 -59 -116 -72 -217 -72 -81 0 -102 4 -145 25 -188 92 -263
344 -163 547 38 78 117 154 191 182 63 24 176 27 236 6z m-1748 -19 c63 -30
107 -75 141 -144 29 -59 33 -76 33 -147 -1 -91 -27 -162 -85 -229 -54 -61
-121 -90 -210 -91 -87 0 -133 20 -191 82 -59 61 -82 117 -87 210 -9 158 66
277 205 329 47 18 147 13 194 -10z m-974 -107 c53 -50 65 -116 34 -186 -33
-72 -127 -98 -190 -53 -58 41 -76 145 -36 207 43 65 138 81 192 32z m319 -343
c240 -110 287 -468 87 -657 -77 -73 -129 -94 -233 -94 -71 0 -94 4 -141 26
-147 69 -232 241 -208 419 23 159 138 292 286 330 56 14 149 3 209 -24z m2969
-80 c105 -48 169 -153 169 -276 0 -167 -114 -290 -269 -290 -100 0 -200 63
-248 157 -41 79 -42 206 -2 283 68 131 222 186 350 126z m848 -17 c60 -16 122
-83 142 -152 49 -169 -85 -320 -246 -277 -57 16 -132 89 -148 145 -33 120 12
229 114 276 46 21 84 23 138 8z m477 -4 c35 -18 70 -81 70 -125 0 -153 -199
-207 -254 -70 -29 72 -14 135 43 183 38 31 94 36 141 12z m-2997 -48 c111 -55
194 -184 204 -319 17 -231 -145 -431 -352 -432 -99 -1 -163 24 -234 90 -151
140 -170 378 -43 550 39 54 87 90 159 120 79 34 186 30 266 -9z m579 -44 c63
-37 85 -130 48 -203 -50 -98 -187 -94 -232 7 -57 129 69 263 184 196z m518
-268 c106 -55 102 -219 -8 -267 -38 -17 -51 -19 -83 -9 -68 21 -110 97 -95
173 18 91 110 142 186 103z m1787 -10 c112 -33 193 -144 201 -276 8 -138 -48
-251 -155 -311 -145 -82 -308 -27 -385 130 -29 59 -33 76 -33 147 1 65 6 91
26 135 70 151 202 218 346 175z m-2151 -139 c61 -28 115 -82 146 -145 19 -39
23 -62 23 -146 0 -90 -3 -105 -28 -152 -59 -112 -145 -167 -262 -168 -59 0
-78 5 -123 30 -102 56 -156 154 -156 280 -1 117 47 212 138 278 73 52 179 62
262 23z m-2359 -212 c61 -39 82 -138 43 -202 -61 -99 -185 -92 -231 14 -57
129 76 262 188 188z"/>
<path d="M14488 12225 c-268 -37 -463 -122 -607 -265 -135 -134 -206 -291
-231 -510 -14 -121 -13 -1856 1 -1995 15 -148 40 -242 95 -355 39 -80 61 -109
133 -180 136 -135 294 -206 548 -246 149 -23 487 -23 636 0 443 70 693 269
781 621 25 100 36 221 36 392 l0 163 -439 0 -438 0 -6 -207 c-7 -278 -25 -336
-120 -385 -56 -29 -174 -31 -231 -3 -49 24 -92 82 -105 146 -8 34 -11 379 -11
1058 0 1117 -2 1078 64 1145 52 51 159 70 251 45 50 -14 109 -73 125 -124 7
-23 14 -126 17 -242 l5 -203 439 0 439 0 0 145 c0 264 -29 426 -102 575 -33
67 -60 103 -128 171 -73 73 -100 93 -190 137 -186 92 -405 133 -698 131 -92
-1 -211 -7 -264 -14z"/>
<path d="M17210 12233 c-383 -38 -664 -179 -814 -406 -63 -97 -90 -155 -117
-257 -38 -144 -40 -233 -36 -1195 3 -898 4 -933 24 -1020 67 -292 203 -467
455 -585 172 -81 365 -114 663 -113 321 0 531 37 724 129 226 107 366 270 435
506 45 156 47 220 43 1218 -3 910 -4 937 -24 1021 -100 404 -383 629 -876 694
-106 13 -377 18 -477 8z m340 -599 c48 -19 110 -87 130 -141 12 -31 15 -203
18 -1008 3 -1009 2 -1047 -39 -1126 -51 -100 -193 -150 -330 -115 -82 21 -126
57 -164 131 l-30 60 0 1010 0 1010 23 50 c53 115 135 159 279 150 39 -3 90
-12 113 -21z"/>
<path d="M18810 12173 c0 -10 151 -794 335 -1742 184 -948 335 -1725 335
-1727 0 -2 256 -4 569 -4 l569 0 7 38 c4 20 153 800 331 1732 178 932 324
1700 324 1707 0 10 -91 13 -454 13 l-454 0 -6 -37 c-3 -21 -40 -351 -81 -733
-41 -382 -91 -825 -110 -985 -60 -504 -95 -832 -95 -902 0 -13 -6 -23 -13 -23
-10 0 -17 39 -26 153 -19 227 -38 388 -178 1504 l-128 1023 -462 0 c-434 0
-463 -1 -463 -17z"/>
<path d="M21580 10445 l0 -1745 435 0 435 0 0 1745 0 1745 -435 0 -435 0 0
-1745z"/>
<path d="M22980 10444 l0 -1747 668 7 c699 8 804 14 967 57 412 107 625 362
675 809 8 64 10 383 8 965 -4 844 -5 873 -25 956 -101 408 -327 593 -823 675
-90 15 -202 18 -787 21 l-683 4 0 -1747z m1219 1171 c109 -34 169 -95 197
-204 13 -51 14 -186 12 -982 l-3 -924 -24 -59 c-55 -137 -148 -183 -383 -193
l-138 -6 0 1198 0 1198 143 -6 c88 -3 163 -12 196 -22z"/>
</g>
</svg>
